<svg class="injected-svg" id="svg-77d28ba7-5670-47a9-bb28-745d12884c6e" height="100%" width="100%" viewBox="0 0 540 508" xmlns="http://www.w3.org/2000/svg"><g xmlns="http://www.w3.org/2000/svg" fill="#5984d6" id="icon-svg">
	<path transform="translate(44, 193) scale(0.6,0.6)" d="M 117.593 27.308 C 116.329 28.233, 110.121 48.520, 96.446 96.419 C 85.799 133.710, 77.017 164.959, 76.929 165.860 C 76.568 169.578, 77.125 171.036, 79.506 172.596 C 81.593 173.963, 82.498 174.036, 84.920 173.033 C 86.520 172.371, 88.295 170.630, 88.864 169.164 C 91.484 162.426, 127 34.811, 127 32.136 C 127 27.227, 121.538 24.424, 117.593 27.308 M 31.208 82.323 C 20.108 93.506, 16 98.291, 16 100.037 C 16 101.788, 20.093 106.522, 31.286 117.714 C 47.634 134.063, 49.718 135.282, 54 131 C 57.702 127.298, 56.605 125.291, 43.801 112.339 L 31.602 100 43.801 87.661 C 56.605 74.709, 57.702 72.702, 54 69 C 49.647 64.647, 47.512 65.895, 31.208 82.323 M 146 69 C 142.298 72.702, 143.395 74.709, 156.199 87.661 L 168.398 100 156.199 112.339 C 143.395 125.291, 142.298 127.298, 146 131 C 150.282 135.282, 152.366 134.063, 168.714 117.714 C 179.907 106.522, 184 101.788, 184 100.037 C 184 98.291, 179.892 93.506, 168.792 82.323 C 152.488 65.895, 150.353 64.647, 146 69" stroke="none" fill-rule="evenodd"></path>
</g><path xmlns="http://www.w3.org/2000/svg" id="SvgjsPath73291739" d="M24.96 0.16L24.96 0.16Q25 0.92 25.02 1.60Q25.04 2.28 25.04 2.96L25.04 2.96Q25.04 3.12 24.92 3.16L24.92 3.16Q24.64 3.28 24.50 3.60Q24.36 3.92 24.22 4.24Q24.08 4.56 23.90 4.80Q23.72 5.04 23.40 5.04L23.40 5.04Q23.08 5.04 22.70 4.66Q22.32 4.28 22.20 3.92L22.20 3.92Q22.20 3.92 22.24 3.88L22.24 3.88L22.24 3.92Q22.24 3.76 22.14 3.34Q22.04 2.92 21.96 2.72L21.96 2.72Q22 2.56 22 2.24L22 2.24Q22 1.60 21.74 1.02Q21.48 0.44 21.48-0.16L21.48-0.16Q21.48-0.36 21.66-0.60Q21.84-0.84 21.84-1.12L21.84-1.12Q21.84-1.28 21.80-1.42Q21.76-1.56 21.76-1.72L21.76-1.72Q21.76-2.44 22.04-2.92Q22.32-3.40 22.32-3.84L22.32-3.84Q22.32-4.12 22.06-4.72Q21.80-5.32 21.80-6.44L21.80-6.44Q21.80-6.64 22.02-7.08Q22.24-7.52 22.24-8.04L22.24-8.04Q22.24-8.08 21.86-8.38Q21.48-8.68 21.48-9.48L21.48-9.48Q21.48-10.32 21.28-11.04Q21.08-11.76 21.08-12.56L21.08-12.56Q21.08-12.76 21.12-12.98Q21.16-13.20 21.16-13.40L21.16-13.40Q21.16-14.40 21.04-15.46Q20.92-16.52 20.80-17.48L20.80-17.48Q20.60-18.72 20.58-19.94Q20.56-21.16 20.44-22.40L20.44-22.40Q20.44-22.52 20.34-23.12Q20.24-23.72 20.08-24.40Q19.92-25.08 19.70-25.62Q19.48-26.16 19.24-26.16L19.24-26.16Q19-26.16 18.92-25.98Q18.84-25.80 18.76-25.64L18.76-25.64Q18.60-25.32 18.30-25.26Q18-25.20 17.80-25.04L17.80-25.04Q17.60-24.60 17.58-24.16Q17.56-23.72 17.28-23.36L17.28-23.36Q17.24-23.12 17.24-22.86Q17.24-22.60 17.22-22.34Q17.20-22.08 17.10-21.86Q17-21.64 16.80-21.56L16.80-21.56Q16.56-21.44 16.36-20.92Q16.16-20.40 16-19.80Q15.84-19.20 15.76-18.70Q15.68-18.20 15.68-18.16L15.68-18.16Q15.68-18 15.72-17.92L15.72-17.92Q15.36-16.72 15.06-15.68Q14.76-14.64 14.36-13.86Q13.96-13.08 13.34-12.64Q12.72-12.20 11.68-12.20L11.68-12.20Q11.04-12.20 10.60-12.48L10.60-12.48Q10.32-12.60 9.90-12.98Q9.48-13.36 9.08-13.88Q8.68-14.40 8.38-14.90Q8.08-15.40 8.08-15.76L8.08-15.76Q8.08-15.84 8.10-15.94Q8.12-16.04 8.12-16.12L8.12-16.12Q8.12-16.36 8.02-16.54Q7.92-16.72 7.76-16.92L7.76-16.92Q7.20-16.36 7.06-15.34Q6.92-14.32 6.92-13.40L6.92-13.40Q6.92-13.16 6.94-12.90Q6.96-12.64 6.96-12.40L6.96-12.40Q6.96-12.08 6.94-11.72Q6.92-11.36 6.92-11.04L6.92-11.04Q6.92-10.52 6.76-10.30Q6.60-10.08 6.42-9.96Q6.24-9.84 6.10-9.72Q5.96-9.60 5.96-9.24L5.96-9.24Q5.96-9 6.12-8.84Q6.28-8.68 6.48-8.52Q6.68-8.36 6.84-8.12Q7-7.88 7-7.48L7-7.48Q7-7.32 6.90-7.16Q6.80-7 6.80-6.84L6.80-6.84Q6.80-6.64 6.90-6.46Q7-6.28 7-6.12L7-6.12Q7-5.92 6.90-5.74Q6.80-5.56 6.68-5.36L6.68-5.36L6.72-5.32L6.64-5.40Q6.72-5.24 6.84-5.18Q6.96-5.12 6.96-4.92L6.96-4.92Q6.96-4.80 6.84-4.68Q6.72-4.56 6.72-4.44L6.72-4.44Q6.72-4.32 6.80-4.18Q6.88-4.04 6.92-3.88L6.92-3.88Q6.80-3.68 6.80-3.52L6.80-3.52Q6.80-3.36 6.96-3.20Q7.12-3.04 7.12-2.96L7.12-2.96Q7.12-2.64 6.96-2.58Q6.80-2.52 6.80-2.32L6.80-2.32Q6.80-2.20 6.86-2.06Q6.92-1.92 6.92-1.80L6.92-1.80Q6.92-1.48 6.76-1.22Q6.60-0.96 6.56-0.68L6.56-0.68Q6.32-0.60 6.16-0.38Q6-0.16 5.86 0.06Q5.72 0.28 5.54 0.46Q5.36 0.64 5.12 0.64L5.12 0.64Q4.72 0.64 4.52 0.38Q4.32 0.12 4.20-0.24Q4.08-0.60 3.96-0.92Q3.84-1.24 3.68-1.36L3.68-1.36Q3.52-1.52 3.48-1.78Q3.44-2.04 3.44-2.36L3.44-2.36Q3.44-3.76 3.12-5.20Q2.80-6.64 2.80-7.80L2.80-7.80Q2.80-8.12 3-8.52L3-8.52Q3-8.60 2.98-8.64Q2.96-8.68 2.96-8.76L2.96-8.76Q2.96-9.04 3.02-9.32Q3.08-9.60 3.08-9.88L3.08-9.88Q3.08-10.12 3.04-10.36Q3-10.60 3-10.80L3-10.80Q3-11.04 3.06-11.28Q3.12-11.52 3.12-11.76L3.12-11.76Q3.12-12.20 3.02-12.62Q2.92-13.04 2.92-13.48L2.92-13.48Q2.92-13.92 3.08-14.46Q3.24-15 3.48-15.32L3.48-15.32Q3.40-15.48 3.32-15.64Q3.24-15.80 3.24-15.96L3.24-15.96Q3.24-16.16 3.38-16.40Q3.52-16.64 3.66-16.86Q3.80-17.08 3.94-17.22Q4.08-17.36 4.08-17.36L4.08-17.36Q4.08-17.48 3.90-17.68Q3.72-17.88 3.72-18.08L3.72-18.08Q3.72-18.96 3.82-19.80Q3.92-20.64 4.06-21.54Q4.20-22.44 4.30-23.44Q4.40-24.44 4.40-25.64L4.40-25.64Q4.40-25.88 4.28-26.06Q4.16-26.24 4.16-26.44L4.16-26.44Q4.16-26.40 4.28-26.80Q4.40-27.20 4.70-27.70Q5-28.20 5.46-28.62Q5.92-29.04 6.60-29.04L6.60-29.04Q7.28-29.04 7.58-28.84Q7.88-28.64 7.88-28L7.88-28Q7.96-26.88 8.46-25.78Q8.96-24.68 9.20-23.44L9.20-23.44Q9.28-22.96 9.50-22.60Q9.72-22.24 9.80-21.76L9.80-21.76Q9.84-21.44 10.04-21.08Q10.24-20.72 10.42-20.36Q10.60-20 10.76-19.64Q10.92-19.28 10.92-18.92L10.92-18.92Q10.92-17.64 11.68-17.64L11.68-17.64Q11.80-17.64 11.88-17.76L11.88-17.76Q13.16-19.80 14.24-21.96Q15.32-24.12 16.80-26.16L16.80-26.16Q17.08-26.72 17.52-27Q17.96-27.28 18.20-27.84L18.20-27.84Q18.48-28.40 18.94-28.66Q19.40-28.92 19.84-29.36L19.84-29.36Q20.04-29.28 20.22-29.24Q20.40-29.20 20.60-29.20L20.60-29.20Q20.72-29.20 20.84-29.24Q20.96-29.28 21.08-29.28L21.08-29.28Q21.36-29.28 21.64-29.22Q21.92-29.16 22.04-28.84L22.04-28.84Q22.04-28.76 22-28.64Q21.96-28.52 21.92-28.44L21.92-28.44L21.96-28.44Q21.96-28.48 21.92-28.48L21.92-28.48Q22.24-28.56 22.36-28.60L22.36-28.60Q22.60-28.60 22.82-28.42Q23.04-28.24 23.20-27.98Q23.36-27.72 23.46-27.42Q23.56-27.12 23.56-26.92L23.56-26.92Q23.56-26.80 23.54-26.66Q23.52-26.52 23.52-26.44L23.52-26.44Q23.52-26.08 23.86-25.86Q24.20-25.64 24.20-25.36L24.20-25.36Q24.20-25.16 24.02-24.88Q23.84-24.60 23.72-24.40L23.72-24.40Q24.16-23.96 24.38-23.76Q24.60-23.56 24.60-22.92L24.60-22.92Q24.60-22.60 24.54-22.30Q24.48-22 24.48-21.68L24.48-21.68Q24.48-21.32 24.54-20.92Q24.60-20.52 24.60-20.12L24.60-20.12Q24.60-19.52 24.34-18.94Q24.08-18.36 24.08-17.52L24.08-17.52Q24.08-17 24.24-16.60Q24.40-16.20 24.40-15.76L24.40-15.76Q24.40-15.52 24.30-15.28Q24.20-15.04 24.20-14.72L24.20-14.72Q24.20-14.28 24.24-13.90Q24.28-13.52 24.28-13.08L24.28-13.08Q24.28-12.92 24.16-12.54Q24.04-12.16 23.96-12.16L23.96-12.16Q23.88-12.16 23.82-12.18Q23.76-12.20 23.68-12.20L23.68-12.20Q23.60-12.20 23.58-11.82Q23.56-11.44 23.56-11.04L23.56-11.04Q23.56-10.36 23.58-9.82Q23.60-9.28 23.60-8.68L23.60-8.68Q23.60-8.20 23.78-7.80Q23.96-7.40 23.96-7.20L23.96-7.20Q23.96-6.84 23.92-6.44Q23.88-6.04 23.88-5.68L23.88-5.68Q23.88-5.36 23.94-5.10Q24-4.84 24-4.52L24-4.52Q24-4.04 23.96-3.58Q23.92-3.12 23.92-2.56L23.92-2.56Q24.24-2.56 24.46-2.80Q24.68-3.04 25-3.52L25-3.52L25-2.48Q25-2.40 24.82-2.22Q24.64-2.04 24.44-1.82Q24.24-1.60 24.06-1.36Q23.88-1.12 23.88-0.96L23.88-0.96Q23.88-0.84 23.94-0.72Q24-0.60 24-0.48L24-0.48Q24-0.28 23.96-0.12Q23.92 0.04 23.92 0.24L23.92 0.24Q23.92 0.56 24.04 0.56L24.04 0.56Q24.12 0.56 24.18 0.46Q24.24 0.36 24.32 0.36L24.32 0.36Q24.40 0.36 24.46 0.44Q24.52 0.52 24.60 0.52L24.60 0.52Q24.68 0.52 24.76 0.40Q24.84 0.28 24.96 0.16ZM23.80-24.08L23.80-24.08Q23.80-24.12 23.82-24.14Q23.84-24.16 23.84-24.20L23.84-24.20Q23.84-24.24 23.68-24.40L23.68-24.40Q23.72-24.28 23.72-24.20Q23.72-24.12 23.80-24.08ZM23.68-15.60L23.68-15.60Q23.64-15.40 23.62-15.28Q23.60-15.16 23.60-15L23.60-15Q23.60-14.76 23.76-14.48L23.76-14.48Q23.76-14.72 23.78-14.88Q23.80-15.04 23.80-15.20L23.80-15.20Q23.80-15.24 23.68-15.60ZM3.56-13.28L3.56-13.28Q3.64-13.12 3.76-13.12L3.76-13.12Q3.92-13.12 3.92-13.28L3.92-13.28Q3.92-13.48 3.76-13.48L3.76-13.48Q3.56-13.48 3.56-13.28ZM3.96-9.32L3.96-9.32Q4.04-9.32 4.16-9.44L4.16-9.44Q4.16-9.44 4.12-9.52L4.12-9.52L4.12-9.56Q3.84-9.56 3.84-9.36L3.84-9.36L3.92-9.28Q3.96-9.28 3.96-9.32ZM4.08-10.32L4.08-10.32Q4.32-10.32 4.32-10.68L4.32-10.68Q4.32-10.80 4.28-10.84Q4.24-10.88 4.16-10.96L4.16-10.96Q4.08-10.96 3.94-10.78Q3.80-10.60 3.80-10.52L3.80-10.52Q3.80-10.44 3.90-10.38Q4-10.32 4.08-10.32ZM4.76-15.60L4.76-15.60Q4.84-15.92 4.84-16L4.84-16Q4.84-16 4.76-16.08L4.76-16.08Q4.76-16.04 4.72-16.02Q4.68-16 4.68-15.96L4.68-15.96Q4.68-15.88 4.72-15.78Q4.76-15.68 4.76-15.60ZM5.08-11.80L5.04-11.80L5.08-11.80ZM5.24-11.88L5.28-11.88Q5.36-11.88 5.36-11.92L5.36-11.92Q5.36-11.96 5.32-12L5.32-12Q5.32-11.96 5.24-11.88L5.24-11.88ZM5.40-14.08L5.40-14.08Q5.40-14.12 5.42-14.14Q5.44-14.16 5.44-14.24L5.44-14.24Q5.44-14.32 5.42-14.46Q5.40-14.60 5.36-14.80L5.36-14.80Q5.32-14.60 5.32-14.50Q5.32-14.40 5.32-14.32L5.32-14.32Q5.32-14.24 5.40-14.08ZM6.56-16.04L6.56-16.04Q6.48-15.96 6.48-15.92L6.48-15.92Q6.48-15.88 6.50-15.86Q6.52-15.84 6.52-15.80L6.52-15.80L6.60-15.88Q6.60-15.92 6.58-15.94Q6.56-15.96 6.56-16.04ZM6.04-9.96L6.04-9.80Q6.08-9.80 6.08-9.88L6.08-9.88Q6.08-9.88 6.04-9.96L6.04-9.96ZM5.92-11.56L5.92-11.56Q6.16-11.88 6.40-12.48Q6.64-13.08 6.64-13.48L6.64-13.48Q6.64-13.52 6.60-13.56Q6.56-13.60 6.52-13.68L6.52-13.68L6.56-13.72Q6.56-14 6.50-14.10Q6.44-14.20 6.34-14.30Q6.24-14.40 6.18-14.52Q6.12-14.64 6.12-14.92L6.12-14.92L6.12-15.36Q6.12-15.56 6.08-15.74Q6.04-15.92 5.92-15.96L5.92-15.96Q5.84-15.68 5.84-15.44Q5.84-15.20 5.84-14.88L5.84-14.88Q5.84-14.36 5.86-13.88Q5.88-13.40 5.88-12.92L5.88-12.92Q5.88-12.68 5.88-12.46Q5.88-12.24 5.84-12L5.84-12Q5.84-11.92 5.88-11.80Q5.92-11.68 5.92-11.56ZM21.96-13.76L21.96-13.76Q21.96-13.80 21.96-13.88Q21.96-13.96 21.88-13.96L21.88-13.96L21.88-13.84Q21.88-13.76 21.96-13.76ZM23.08-20.92L23.08-20.92Q23-20.84 23-20.80L23-20.80Q23-20.72 23.08-20.56L23.08-20.56Q23.16-20.56 23.16-20.72L23.16-20.72Q23.16-20.88 23.08-20.92ZM22.88-14.64L22.80-14.56Q22.84-14.44 22.96-14.20L22.96-14.20Q22.96-14.12 22.94-14Q22.92-13.88 22.92-13.72L22.92-13.72Q22.92-13.64 23.04-13.60L23.04-13.60Q23.04-13.64 23.08-13.68L23.08-13.68Q23.16-13.76 23.16-13.84L23.16-13.84Q23.16-14.04 23.12-14.34Q23.08-14.64 22.88-14.64L22.88-14.64ZM22.76-11.32L22.76-11.32Q22.68-11.24 22.68-11.20L22.68-11.20L22.68-11.12Q22.92-10.88 22.92-10.68L22.92-10.68Q22.92-10.56 22.86-10.46Q22.80-10.36 22.80-10.28L22.80-10.28Q22.80-10.16 22.96-10.16L22.96-10.16Q23.08-10.16 23.14-10.46Q23.20-10.76 23.28-10.92L23.28-10.92Q23.24-11.08 23.18-11.24Q23.12-11.40 22.96-11.40L22.96-11.40Q22.84-11.40 22.76-11.32ZM22.84-9.08L22.84-9.08Q22.76-9 22.76-8.88L22.76-8.88Q22.76-8.72 22.88-8.68Q23-8.64 23.08-8.60L23.08-8.60Q23.16-8.76 23.16-8.84L23.16-8.84Q23.16-9.12 23-9.12L23-9.12L22.92-9.12Q22.88-9.12 22.84-9.08ZM23.48-4.12L23.48-4.12Q23.48-4.12 23.44-4.16L23.44-4.16Q23.48-4.40 23.50-4.66Q23.52-4.92 23.52-5.16L23.52-5.16Q23.52-5.36 23.38-5.50Q23.24-5.64 23.04-5.64L23.04-5.64Q22.92-5.64 22.88-5.26Q22.84-4.88 22.84-4.60L22.84-4.60Q22.84-4.44 22.88-4.18Q22.92-3.92 23-3.66Q23.08-3.40 23.14-3.20Q23.20-3 23.28-2.96L23.28-2.96Q23.48-3.04 23.48-3.46Q23.48-3.88 23.48-4.12ZM30.52-14.12L30.52-14.12Q30.84-14.48 31.10-14.88Q31.36-15.28 31.52-15.76L31.52-15.76Q31.64-16.16 31.94-16.46Q32.24-16.76 32.56-17.02Q32.88-17.28 33.14-17.54Q33.40-17.80 33.52-18.12L33.52-18.12Q33.96-18.56 34.40-19.08Q34.84-19.60 35.52-19.88L35.52-19.88Q35.92-20.04 36.20-20.36Q36.48-20.68 36.96-20.68L36.96-20.68Q37.72-20.68 38.68-20.40Q39.64-20.12 40.48-19.64Q41.32-19.16 41.88-18.48Q42.44-17.80 42.44-17L42.44-17Q42.44-16.92 42.42-16.80Q42.40-16.68 42.40-16.60L42.40-16.60Q42.40-16.40 42.42-16.22Q42.44-16.04 42.44-15.84L42.44-15.84Q42.44-15.08 41.88-14.68L41.88-14.68Q41.56-14.52 41.40-14.14Q41.24-13.76 41-13.48L41-13.48Q40.80-13.28 40.60-13.08Q40.40-12.88 40.24-12.56L40.24-12.56Q40.08-12.24 39.60-11.74Q39.12-11.24 38.44-10.78Q37.76-10.32 36.94-9.98Q36.12-9.64 35.28-9.64L35.28-9.64Q34.84-9.64 34.44-9.72Q34.04-9.80 33.60-9.80L33.60-9.80Q33.04-9.80 32.92-9.16Q32.80-8.52 32.80-8.04L32.80-8.04Q32.80-7.36 32.84-6.48Q32.88-5.60 33.04-4.80Q33.20-4 33.50-3.44Q33.80-2.88 34.36-2.88L34.36-2.88Q34.80-2.88 35.30-3.16Q35.80-3.44 36.12-3.72L36.12-3.72Q37.76-5.04 39.34-6.32Q40.92-7.60 42.48-9L42.48-9Q42.64-9.16 43.02-9.54Q43.40-9.92 43.86-10.32Q44.32-10.72 44.84-11.02Q45.36-11.32 45.84-11.32L45.84-11.32Q46.04-11.32 46.26-11.22Q46.48-11.12 46.48-10.88L46.48-10.88Q46.48-10.68 46.28-10.50Q46.08-10.32 45.82-10.16Q45.56-10 45.30-9.86Q45.04-9.72 44.88-9.60L44.88-9.60Q44.24-9.08 43.80-8.64L43.80-8.64Q43.36-8.24 43.04-7.90Q42.72-7.56 42.72-7.40L42.72-7.40Q42.72-7.16 42.56-6.80Q42.40-6.44 42.08-6.44L42.08-6.44Q41.64-6.24 41.32-5.84Q41-5.44 40.72-5.02Q40.44-4.60 40.18-4.26Q39.92-3.92 39.68-3.84L39.68-3.84Q39.44-3.76 38.88-3.20Q38.32-2.64 37.70-2Q37.08-1.36 36.52-0.86Q35.96-0.36 35.72-0.36L35.72-0.36Q35.48-0.36 35.32-0.48L35.32-0.48Q35.12-0.36 34.94-0.24Q34.76-0.12 34.56 0L34.56 0Q33.40-0.12 32.56-0.28Q31.72-0.44 31.08-1.36L31.08-1.36Q30.92-1.72 30.72-1.84L30.72-1.84Q30.48-1.96 30.26-2.26Q30.04-2.56 29.88-2.86Q29.72-3.16 29.64-3.42Q29.56-3.68 29.56-3.72L29.56-3.72Q29.56-3.84 29.60-3.98Q29.64-4.12 29.64-4.28L29.64-4.28Q29.64-4.56 29.42-4.80Q29.20-5.04 29.20-5.28L29.20-5.28Q29.20-5.36 29.26-5.48Q29.32-5.60 29.32-5.72L29.32-5.72Q29.32-5.92 29.24-6.10Q29.16-6.28 29.16-6.48L29.16-6.48Q29.16-6.64 29.26-6.80Q29.36-6.96 29.36-7.12L29.36-7.12Q29.36-7.32 29.22-7.56Q29.08-7.80 29.08-8.04L29.08-8.04Q29.08-8.32 29.08-8.78Q29.08-9.24 29.12-9.72Q29.16-10.20 29.26-10.64Q29.36-11.08 29.56-11.32L29.56-11.32Q29.96-11.84 30.04-12.66Q30.12-13.48 30.56-14.12L30.56-14.12Q30.40-13.88 30.40-13.68L30.40-13.68Q30.40-13.56 30.48-13.48L30.48-13.48Q30.52-13.52 30.56-13.52Q30.60-13.52 30.60-13.64L30.60-13.64Q30.60-13.80 30.52-14.12ZM34.32-12.12L34.32-12.12Q34.84-12.20 35.68-12.46Q36.52-12.72 37.30-13.18Q38.08-13.64 38.64-14.34Q39.20-15.04 39.20-16L39.20-16Q39.20-16.52 39.02-17.16Q38.84-17.80 38.24-17.80L38.24-17.80Q37.24-17.80 36.38-17.12Q35.52-16.44 34.88-15.54Q34.24-14.64 33.86-13.76Q33.48-12.88 33.48-12.48L33.48-12.48Q33.48-12.28 33.66-12.24Q33.84-12.20 34.32-12.12ZM49.20-10.32L49.20-10.40Q49.40-10.20 49.46-9.90Q49.52-9.60 49.52-9.16L49.52-9.16Q49.52-8.80 49.44-8.56Q49.36-8.32 49.24-8.16Q49.12-8 49.04-7.82Q48.96-7.64 48.96-7.40L48.96-7.40Q48.96-7.28 49-7.10Q49.04-6.92 49.12-6.92L49.12-6.92Q49.16-6.92 49.22-6.98Q49.28-7.04 49.36-7.04L49.36-7.04Q49.44-7.04 49.48-6.48Q49.52-5.92 49.52-5.44L49.52-5.44Q49.52-4.92 49.42-4.60Q49.32-4.28 49.20-4Q49.08-3.72 48.98-3.42Q48.88-3.12 48.88-2.68L48.88-2.68Q48.88-2.32 48.86-2.04Q48.84-1.76 48.84-1.36L48.84-1.36Q48.84-0.80 49.04-0.32Q49.24 0.16 49.96 0.16L49.96 0.16Q50.04 0.16 50.08 0.12L50.08 0.12Q50.12 0.56 50.12 1.06Q50.12 1.56 50.32 1.60L50.32 1.60Q50.56 1.60 50.90 0.68Q51.24-0.24 51.64-1.48Q52.04-2.72 52.46-4Q52.88-5.28 53.24-6L53.24-6Q53.36-5.96 53.52-5.96L53.52-5.96Q53.68-5.96 53.72-6.10Q53.76-6.24 53.76-6.42Q53.76-6.60 53.78-6.74Q53.80-6.88 53.92-6.88L53.92-6.88Q54-6.88 54.02-6.64Q54.04-6.40 54.08-6.12Q54.12-5.84 54.16-5.60Q54.20-5.36 54.32-5.36L54.32-5.36Q54.52-5.56 54.56-6.22Q54.60-6.88 54.60-7.44L54.60-7.44Q54.60-7.68 54.56-7.94Q54.52-8.20 54.52-8.44L54.52-8.44Q54.52-9.24 54.80-10.16Q55.08-11.08 55.80-11.48L55.80-11.48Q56.04-11.60 56.14-12.24Q56.24-12.88 56.32-13.28L56.32-13.28Q56.40-13.80 56.70-14.22Q57-14.64 57.16-15.16L57.16-15.16Q57.20-15.28 57.44-15.54Q57.68-15.80 58-16.04Q58.32-16.28 58.66-16.46Q59-16.64 59.24-16.64L59.24-16.64Q59.44-16.64 59.66-16.56Q59.88-16.48 59.88-16.32L59.88-16.32Q59.88-15.64 59.32-14.96Q58.76-14.28 58.28-13.80L58.28-13.80Q57.92-13.56 57.64-13Q57.36-12.44 57.12-11.88Q56.88-11.32 56.68-10.90Q56.48-10.48 56.32-10.48L56.32-10.48Q56.20-10.48 56.14-10.62Q56.08-10.76 55.92-10.76L55.92-10.76Q55.80-10.76 55.72-10.16Q55.64-9.56 55.62-8.74Q55.60-7.92 55.58-7.06Q55.56-6.20 55.52-5.64L55.52-5.64Q55.40-5.56 55.28-5.48Q55.16-5.40 55-5.32L55-5.32Q54.92-4.20 54.96-3.08Q55-1.96 54.76-0.84L54.76-0.84Q54.64-0.84 54.50-0.86Q54.36-0.88 54.20-0.88L54.20-0.88Q54.12-0.72 54.12-0.64L54.12-0.64Q54.12-0.48 54.18-0.34Q54.24-0.20 54.24 0L54.24 0Q54.24 0.16 54.22 0.30Q54.20 0.44 54.20 0.60L54.20 0.60Q54.20 0.68 54.22 0.80Q54.24 0.92 54.24 1.04L54.24 1.04Q54.20 2.08 53.84 2.94Q53.48 3.80 53.20 4.72L53.20 4.72Q53.08 5.12 52.86 5.34Q52.64 5.56 52.42 5.70Q52.20 5.84 52 5.98Q51.80 6.12 51.72 6.32L51.72 6.32Q51.68 6.44 51.54 6.62Q51.40 6.80 51.24 6.96Q51.08 7.12 50.94 7.22Q50.80 7.32 50.80 7.32L50.80 7.32Q50.64 7.32 50.52 7.18Q50.40 7.04 50.20 7.04L50.20 7.04Q50 7.04 49.76 7.14Q49.52 7.24 49.32 7.24L49.32 7.24Q48.64 7.16 48.28 6.60Q47.92 6.04 47.68 5.32Q47.44 4.60 47.22 3.92Q47 3.24 46.68 2.92L46.68 2.92Q46.52 2.76 46.52 2.16L46.52 2.16Q46.52 1.44 46.42 1.12Q46.32 0.80 46.20 0.50Q46.08 0.20 45.98-0.24Q45.88-0.68 45.88-1.56L45.88-1.56Q45.88-2.08 45.90-2.60Q45.92-3.12 45.92-3.52L45.92-3.52Q45.92-4.04 45.80-4.48Q45.68-4.92 45.68-5.40L45.68-5.40Q45.68-6.08 45.80-6.78Q45.92-7.48 45.92-8.16L45.92-8.16Q45.92-8.48 45.92-8.74Q45.92-9 45.88-9.32L45.88-9.32Q45.88-9.60 45.98-9.68Q46.08-9.76 46.22-9.78Q46.36-9.80 46.46-9.82Q46.56-9.84 46.56-10.04L46.56-10.04Q46.56-10.24 46.54-10.40Q46.52-10.56 46.52-10.76L46.52-10.76Q46.56-11.36 46.58-11.96Q46.60-12.56 46.60-13.16L46.60-13.16Q46.60-13.88 46.38-14.50Q46.16-15.12 46.16-15.80L46.16-15.80Q46.16-16.88 46.34-17.82Q46.52-18.76 46.72-19.80L46.72-19.80Q46.80-19.96 46.80-20.16L46.80-20.16Q46.80-20.44 46.74-20.70Q46.68-20.96 46.68-21.28L46.68-21.28Q46.68-21.56 46.80-21.80Q46.92-22.04 46.92-22.32L46.92-22.32Q46.92-22.52 46.88-22.74Q46.84-22.96 46.84-23.20L46.84-23.20Q46.84-23.88 46.98-24.66Q47.12-25.44 47.12-26.04L47.12-26.04Q47.12-26.28 47.10-26.52Q47.08-26.76 47.08-26.96L47.08-26.96Q47.08-27.44 47.10-27.90Q47.12-28.36 47.12-28.80L47.12-28.80Q47.12-29.24 47-29.56Q46.88-29.88 46.88-30.20L46.88-30.20Q46.88-30.84 47.52-30.98Q48.16-31.12 48.72-31.12L48.72-31.12Q49.72-31.12 49.94-30.84Q50.16-30.56 50.16-29.76L50.16-29.76Q50.16-28.96 50.08-28.08Q50-27.20 49.92-26.30Q49.84-25.40 49.76-24.58Q49.68-23.76 49.68-23.12L49.68-23.12Q49.68-22.96 49.76-22.82Q49.84-22.68 49.84-22.48L49.84-22.48Q49.84-22.44 49.80-22.40L49.80-22.40Q49.60-22 49.62-21.60Q49.64-21.20 49.56-20.76L49.56-20.76Q49.56-20.56 49.64-20.44Q49.72-20.32 49.72-20.12L49.72-20.12Q49.72-20 49.66-19.88Q49.60-19.76 49.60-19.68L49.60-19.68Q49.60-19.52 49.66-19.40Q49.72-19.28 49.72-19.12L49.72-19.12Q49.72-18.88 49.64-18.56Q49.56-18.24 49.56-18L49.56-18Q49.56-17.76 49.64-17.52Q49.72-17.28 49.72-17.04L49.72-17.04Q49.72-16.48 49.56-15.96Q49.40-15.44 49.40-15L49.40-15Q49.40-14.80 49.48-14.64Q49.56-14.48 49.56-14.28L49.56-14.28Q49.56-14.04 49.38-13.80Q49.20-13.56 49.20-13.32L49.20-13.32Q49.20-13.08 49.38-12.90Q49.56-12.72 49.56-12.40L49.56-12.40Q49.48-11.64 49.38-11.26Q49.28-10.88 49.20-10.32L49.20-10.32ZM46.36-5.88L46.36-5.88Q46.56-5.96 46.80-6.04Q47.04-6.12 47.04-6.40L47.04-6.40Q47.04-6.60 46.86-6.72Q46.68-6.84 46.52-6.84L46.52-6.84Q46.24-6.84 46.24-6.32L46.24-6.32Q46.24-6.12 46.36-5.88ZM52.76-3.44L52.64-3.48Q52.60-3.16 52.60-2.88Q52.60-2.60 52.60-2.28L52.60-2.28L52.68-2.20Q52.76-2.20 52.76-2.84L52.76-2.84L52.76-3.44ZM55.12-7.24L55.12-7.24Q55.08-6.96 55.06-6.84Q55.04-6.72 55.04-6.64L55.04-6.64Q55.04-6.52 55.12-6.44L55.12-6.44Q55.12-6.48 55.14-6.50Q55.16-6.52 55.16-6.56L55.16-6.56Q55.16-6.68 55.14-6.80Q55.12-6.92 55.12-7.24ZM49.72 1.76L49.72 1.76Q49.60 1.76 49.58 1.88Q49.56 2 49.56 2.08L49.56 2.08Q49.56 2.24 49.68 2.36L49.68 2.36Q49.72 2.24 49.76 2.16Q49.80 2.08 49.84 1.96L49.84 1.96Q49.84 1.88 49.72 1.76ZM54.36-3.96L54.36-3.96Q54.52-4.12 54.52-4.16L54.52-4.16Q54.52-4.28 54.40-4.28L54.40-4.28Q54.28-4.28 54.20-4.08L54.20-4.08Q54.20-3.96 54.36-3.96ZM48.56-4.04L48.56-4.04Q48.56-4.16 48.48-4.24L48.48-4.24Q48.40-4.08 48.40-4L48.40-4Q48.40-3.92 48.44-3.88L48.44-3.88Q48.48-3.92 48.50-3.96Q48.52-4 48.56-4.04ZM56.68-12.52L56.68-12.52Q56.68-12.68 56.60-12.68L56.60-12.68Q56.52-12.68 56.52-12.60L56.52-12.60Q56.52-12.56 56.54-12.54Q56.56-12.52 56.56-12.48L56.56-12.48Q56.64-12.48 56.68-12.52ZM48.44-8.08L48.48-7.96L48.52-8.04L48.44-8.08ZM59.36 1.88L59.36 1.88Q58.96 1.72 58.86 1.32Q58.76 0.92 58.44 0.72L58.44 0.72Q58.40 0.72 58.36 0.38Q58.32 0.04 58.28-0.42Q58.24-0.88 58.20-1.34Q58.16-1.80 58.16-2.08L58.16-2.08Q58.16-2.48 57.98-2.88Q57.80-3.28 57.80-3.60L57.80-3.60Q57.80-3.80 57.98-4.04Q58.16-4.28 58.16-4.64L58.16-4.64Q58.08-4.96 58.08-5.30Q58.08-5.64 58.04-5.96L58.04-5.96Q58.04-6.44 57.76-6.78Q57.48-7.12 57.48-7.64L57.48-7.64Q57.48-8.32 57.52-8.98Q57.56-9.64 57.64-10.32L57.64-10.32Q57.64-10.68 57.90-10.94Q58.16-11.20 58.16-11.48L58.16-11.48Q58.16-11.76 57.94-11.96Q57.72-12.16 57.72-12.48L57.72-12.48Q57.72-12.60 57.76-12.74Q57.80-12.88 57.80-13L57.80-13Q57.80-13.32 57.72-13.62Q57.64-13.92 57.64-14.24L57.64-14.24Q57.64-14.80 57.90-15.40Q58.16-16 58.16-16.40L58.16-16.40Q58.16-16.72 57.96-17Q57.76-17.28 57.76-17.60L57.76-17.60Q57.76-18.52 58-19.44Q58.24-20.36 58.24-21.24L58.24-21.24Q58.24-21.48 58.16-21.72Q58.08-21.96 58.08-22.20L58.08-22.20Q58.08-22.40 58.22-22.52Q58.36-22.64 58.36-22.84L58.36-22.84Q58.36-23.04 58.28-23.18Q58.20-23.32 58.20-23.48L58.20-23.48Q58.20-23.68 58.40-23.92Q58.60-24.16 58.60-24.60L58.60-24.60Q58.60-24.92 58.44-25.20Q58.28-25.48 58.28-25.72L58.28-25.72Q58.28-25.96 58.64-26.40Q59-26.84 59-27.64L59-27.64Q59-27.96 58.90-28.22Q58.80-28.48 58.80-28.76L58.80-28.76Q58.80-29.52 58.98-30.30Q59.16-31.08 59.16-31.84L59.16-31.84Q59.16-32.04 59.10-32.22Q59.04-32.40 59.04-32.60L59.04-32.60Q59.04-32.72 59.24-32.84Q59.44-32.96 59.72-33.02Q60-33.08 60.30-33.12Q60.60-33.16 60.84-33.16L60.84-33.16Q61.88-33.16 62.18-32.66Q62.48-32.16 62.48-30.84L62.48-30.84Q62.48-29.40 62.14-27.78Q61.80-26.16 61.80-24.56L61.80-24.56Q61.80-24.20 61.56-23.56Q61.32-22.92 61.32-22.12L61.32-22.12Q61.56-21.96 61.56-21.68L61.56-21.68Q61.56-21.52 61.40-21.20L61.40-21.20Q61.08-20.40 61-19.48Q60.92-18.56 60.92-17.68L60.92-17.68Q60.92-17.28 60.70-17.06Q60.48-16.84 60.48-16.60L60.48-16.60Q60.48-16.36 60.64-16.20L60.64-16.20Q60.56-16 60.54-15.76Q60.52-15.52 60.44-15.32L60.44-15.32Q60.44-15.16 60.60-15.16L60.60-15.16Q60.76-15.16 61.36-15.94Q61.96-16.72 62.84-17.64Q63.72-18.56 64.74-19.34Q65.76-20.12 66.72-20.12L66.72-20.12Q67.24-20.12 67.60-19.66Q67.96-19.20 67.96-18.76L67.96-18.76Q67.96-17.96 67.48-16.96Q67-15.96 66.60-15.12L66.60-15.12Q66.12-14.12 65.26-12.92Q64.40-11.72 63.44-10.92L63.44-10.92Q63.24-10.72 63.12-10.48L63.12-10.48Q63.24-9.92 63.60-9.34Q63.96-8.76 64.42-8.18Q64.88-7.60 65.38-7.04Q65.88-6.48 66.32-6L66.32-6Q66.88-5.40 67.56-4.96Q68.24-4.52 68.80-3.84L68.80-3.84Q69.24-3.40 69.72-3.22Q70.20-3.04 70.70-2.88Q71.20-2.72 71.66-2.44Q72.12-2.16 72.56-1.48L72.56-1.48Q72.24-0.84 71.68-0.46Q71.12-0.08 70.36-0.08L70.36-0.08Q70.28-0.08 69.66-0.20Q69.04-0.32 68.26-0.52Q67.48-0.72 66.80-1Q66.12-1.28 65.96-1.60L65.96-1.60Q65.84-2 65.52-2.12Q65.20-2.24 64.96-2.44L64.96-2.44Q64.24-3.16 63.42-3.84Q62.60-4.52 62.04-5.44L62.04-5.44Q61.68-6 61.14-6.22Q60.60-6.44 60.44-6.44L60.44-6.44Q60.44-6.36 60.12-6.02Q59.80-5.68 59.80-5.48L59.80-5.48Q59.80-5.24 59.96-5.20L59.96-5.20Q60.08-5.20 60.22-4.84Q60.36-4.48 60.52-4.02Q60.68-3.56 60.78-3.16Q60.88-2.76 60.88-2.64L60.88-2.64Q60.88-2.48 60.68-2.28Q60.48-2.08 60.48-2L60.48-2Q60.48-1.96 60.72-1.84L60.72-1.84Q60.76-1.84 60.92-1.48Q61.08-1.12 61.26-0.64Q61.44-0.16 61.58 0.32Q61.72 0.80 61.72 1.08L61.72 1.08Q61.72 1.28 61.66 1.68Q61.60 2.08 61.42 2.48Q61.24 2.88 60.96 3.18Q60.68 3.48 60.20 3.48L60.20 3.48Q59.76 3.48 59.48 3.12Q59.20 2.76 59.20 2.32L59.20 2.32Q59.20 2.12 59.32 1.88L59.32 1.88L59.24 1.80Q59.32 1.88 59.36 1.88ZM59.80-15.28L59.80-15.28Q59.76-15.32 59.60-15.32L59.60-15.32Q59.56-15.32 59.56-15.28L59.56-15.28Q59.56-15.24 59.52-15.24L59.52-15.24Q59.56-15.20 59.64-15.20L59.64-15.20Q59.72-15.20 59.80-15.28ZM66.40-18.76L66.40-18.76Q66.32-18.88 66.24-18.88L66.24-18.88Q65.84-18.88 65.30-18.52Q64.76-18.16 64.22-17.64Q63.68-17.12 63.20-16.50Q62.72-15.88 62.44-15.36L62.44-15.36Q62.28-15.08 62.04-14.68Q61.80-14.28 61.56-13.88Q61.32-13.48 61.14-13.10Q60.96-12.72 60.96-12.48L60.96-12.48Q60.96-12.28 61.20-12.16Q61.44-12.04 61.76-12.04L61.76-12.04Q61.92-12.04 62-12.08L62-12.08Q62.64-12.44 63.06-12.82Q63.48-13.20 63.82-13.62Q64.16-14.04 64.46-14.50Q64.76-14.96 65.12-15.40L65.12-15.40Q65.16-15.48 65.36-15.78Q65.56-16.08 65.80-16.54Q66.04-17 66.22-17.58Q66.40-18.16 66.40-18.76ZM59.40-7.44L59.40-7.80Q59.40-8.08 59.32-8.08L59.32-8.08L59-7.52L58.68-6.96Q58.68-6.88 58.76-6.76Q58.84-6.64 58.92-6.64L58.92-6.64Q59.36-6.72 59.38-7.02Q59.40-7.32 59.40-7.44L59.40-7.44ZM59.32-3.32L59.32-3.32Q59.44-3.56 59.44-3.80L59.44-3.80Q59.44-4.04 59.42-4.22Q59.40-4.40 59.24-4.56L59.24-4.56Q59.12-4.56 59.12-4.44L59.12-4.44Q59.16-4.16 59.16-3.88Q59.16-3.60 59.32-3.32ZM59.80-1.40L59.80-1.40Q59.80-1.36 59.78-1.34Q59.76-1.32 59.76-1.28L59.76-1.28Q59.76-1.20 59.80-1.14Q59.84-1.08 59.88-1L59.88-1Q60.04-1.16 60.04-1.32L60.04-1.32Q60.04-1.64 59.88-1.64L59.88-1.64Q59.84-1.64 59.84-1.54Q59.84-1.44 59.80-1.40ZM59.44-5.52L59.44-5.52Q59.36-5.68 59.32-5.72L59.32-5.72Q59.08-5.64 59.08-5.52L59.08-5.52Q59.08-5.32 59.24-5.32L59.24-5.32Q59.36-5.32 59.44-5.52ZM59.36-12.64L59.36-12.64Q59.36-12.68 59.42-12.76Q59.48-12.84 59.48-12.96L59.48-12.96Q59.48-13.04 59.36-13.16L59.36-13.16Q59.24-13.12 59.24-12.88L59.24-12.88Q59.24-12.80 59.24-12.78Q59.24-12.76 59.36-12.64ZM58.76-8.64L58.76-8.64Q58.84-8.72 58.84-8.76L58.84-8.76Q58.84-8.88 58.76-9.12L58.76-9.12Q58.68-9.12 58.66-9.02Q58.64-8.92 58.64-8.84L58.64-8.84Q58.64-8.76 58.76-8.64ZM59.92-7.32L59.84-7.20L59.96-7.20L59.92-7.32ZM92.08-15.76L92.08-15.76Q92.08-15.84 92.16-15.84L92.16-15.84Q92.32-15.84 92.60-15.62Q92.88-15.40 92.88-15.12L92.88-15.12Q92.88-14.88 92.52-14.64Q92.16-14.40 91.20-14.32L91.20-14.32Q90.16-14.24 89.22-13.84Q88.28-13.44 87.40-13L87.40-13Q86.84-12.72 86.48-12.50Q86.12-12.28 85.90-12.06Q85.68-11.84 85.58-11.56Q85.48-11.28 85.44-10.84L85.44-10.84Q85.44-10.76 85.34-10.20Q85.24-9.64 85.10-9Q84.96-8.36 84.82-7.82Q84.68-7.28 84.64-7.24L84.64-7.24Q84.32-7.04 84.24-6.74Q84.16-6.44 84.14-6.10Q84.12-5.76 84.10-5.40Q84.08-5.04 83.84-4.76L83.84-4.76Q83.64-4.48 83.46-4.14Q83.28-3.80 82.92-3.30Q82.56-2.80 81.96-2.06Q81.36-1.32 80.28-0.24L80.28-0.24Q80.28-0.24 80.24-0.28L80.24-0.28Q80.12-0.28 79.84-0.14Q79.56 0 79.22 0.18Q78.88 0.36 78.54 0.56Q78.20 0.76 78 0.88L78 0.88Q77.36 0.68 76.68 0.52Q76 0.36 75.40-0.08L75.40-0.08Q74.60-0.72 73.96-1.64L73.96-1.64Q73.40-2.44 72.98-3.60Q72.56-4.76 72.56-6.32L72.56-6.32Q72.56-6.92 72.72-7.48Q72.88-8.04 72.88-8.60L72.88-8.60Q72.88-8.80 73.02-9.22Q73.16-9.64 73.30-10.16Q73.44-10.68 73.58-11.18Q73.72-11.68 73.72-12.04L73.72-12.04Q73.72-12.36 73.54-12.80Q73.36-13.24 73.16-13.74Q72.96-14.24 72.78-14.74Q72.60-15.24 72.60-15.68L72.60-15.68Q72.60-17.24 72.90-18.14Q73.20-19.04 73.74-19.50Q74.28-19.96 75.06-20.08Q75.84-20.20 76.84-20.20L76.84-20.20L78.76-20.20Q79.56-20.20 80.26-19.74Q80.96-19.28 81.68-19.04L81.68-19.04Q82.08-18.88 82.56-18.52Q83.04-18.16 83.46-17.68Q83.88-17.20 84.22-16.64Q84.56-16.08 84.72-15.52L84.72-15.52Q84.84-15.04 85-14.54Q85.16-14.04 85.68-14.04L85.68-14.04Q85.80-14.04 86.04-14.12L86.04-14.12Q87.56-14.64 89.02-15.16Q90.48-15.68 92.08-15.76ZM83.24-9.84L83.24-9.84Q83.16-10.24 83.16-10.56Q83.16-10.88 82.72-10.88L82.72-10.88Q81.64-10.48 80.54-10.12Q79.44-9.76 78.28-9.76L78.28-9.76Q77.68-9.60 77.44-8.82Q77.20-8.04 77.20-7.12L77.20-7.12Q77.20-6.96 77.22-6.82Q77.24-6.68 77.24-6.52L77.24-6.52Q77.24-6.12 77.10-5.68Q76.96-5.24 76.96-4.88L76.96-4.88Q76.96-4.56 77.06-4.16Q77.16-3.76 77.36-3.36Q77.56-2.96 77.84-2.70Q78.12-2.44 78.52-2.44L78.52-2.44Q79.24-2.44 79.90-3.20Q80.56-3.96 81.10-4.90Q81.64-5.84 82.06-6.68Q82.48-7.52 82.76-7.72L82.76-7.72Q83.08-7.92 83.12-8.60Q83.16-9.28 83.24-9.84ZM77.44-18.84L77.44-18.84Q77.32-18.80 77.16-18.78Q77-18.76 76.80-18.72L76.80-18.72Q76.32-18.64 75.96-18.34Q75.60-18.04 75.36-17.62Q75.12-17.20 74.98-16.70Q74.84-16.20 74.84-15.76L74.84-15.76Q74.84-15.48 74.90-15.02Q74.96-14.56 75.36-14.56L75.36-14.56Q75.44-14.56 75.44-14.60L75.44-14.60Q75.88-15.04 76.04-15.22Q76.20-15.40 76.40-15.40L76.40-15.40Q76.64-15.40 77-15.24L77-15.24Q77.08-15.20 77.52-15.08Q77.96-14.96 78.44-14.76Q78.92-14.56 79.30-14.28Q79.68-14 79.68-13.64L79.68-13.64Q79.68-13.36 79.40-12.92Q79.12-12.48 79.12-12.20L79.12-12.20Q79.12-11.96 79.30-11.90Q79.48-11.84 79.64-11.84L79.64-11.84Q80.04-11.88 80.60-11.98Q81.16-12.08 81.70-12.26Q82.24-12.44 82.62-12.70Q83-12.96 83-13.32L83-13.32Q83-13.52 82.98-13.68Q82.96-13.84 82.88-14.04L82.88-14.04Q82.52-14.84 82-15.70Q81.48-16.56 80.82-17.26Q80.16-17.96 79.32-18.40Q78.48-18.84 77.44-18.84ZM86.52-4L87.44-4.44Q87.80-4.44 87.96-4.72L87.96-4.72Q87.96-4.72 88.40-5.24Q88.84-5.76 89.34-6.42Q89.84-7.08 90.28-7.70Q90.72-8.32 90.72-8.52L90.72-8.52Q90.72-8.68 90.56-8.76L90.56-8.76Q89.96-8.96 89.74-9.36Q89.52-9.76 89.52-10.28L89.52-10.28Q89.52-10.44 89.56-10.68Q89.60-10.92 89.84-10.92L89.84-10.92Q90.48-10.60 91.24-10.60L91.24-10.60Q92-10.60 92.78-10.70Q93.56-10.80 93.92-11.44L93.92-11.44Q94.32-12.12 94.86-12.34Q95.40-12.56 96.04-13.04L96.04-13.04Q96.04-13.04 96.40-13.36Q96.76-13.68 97.22-14.08Q97.68-14.48 98.04-14.82Q98.40-15.16 98.40-15.20L98.40-15.20Q98.40-15.28 98.28-15.28L98.28-15.28Q97.28-15.28 96.30-15.20Q95.32-15.12 94.40-15.12L94.40-15.12Q93.44-15.12 92.36-15.54Q91.28-15.96 90.38-16.70Q89.48-17.44 88.90-18.44Q88.32-19.44 88.32-20.56L88.32-20.56Q88.32-20.72 88.40-20.96Q88.48-21.20 88.68-21.20L88.68-21.20Q89-21.20 89.30-20.84Q89.60-20.48 89.76-20.24L89.76-20.24Q90.28-19.40 91.38-19.08Q92.48-18.76 93.48-18.68L93.48-18.68Q94.68-18.68 95.88-18.88Q97.08-19.08 98.30-19.32Q99.52-19.56 100.76-19.76Q102-19.96 103.28-19.96L103.28-19.96Q104.72-19.96 105.96-19.68L105.96-19.68Q106.08-19.64 106.48-19.32Q106.88-19 107.30-18.56Q107.72-18.12 108.04-17.58Q108.36-17.04 108.36-16.60L108.36-16.60Q108.36-15.60 107.72-15.12Q107.08-14.64 106.26-14.44Q105.44-14.24 104.68-14.12Q103.92-14 103.64-13.72L103.64-13.72Q103.36-13.40 103-13.30Q102.64-13.20 102.26-13.10Q101.88-13 101.52-12.88Q101.16-12.76 100.88-12.40L100.88-12.40Q100.80-12.32 100.46-12.20Q100.12-12.08 99.72-11.92Q99.32-11.76 99.02-11.56Q98.72-11.36 98.72-11.12L98.72-11.12Q98.72-10.96 98.86-10.90Q99-10.84 99.12-10.84L99.12-10.84Q99.56-10.84 100.18-10.86Q100.80-10.88 101.48-10.88L101.48-10.88Q102.52-10.88 103.38-10.70Q104.24-10.52 104.24-9.92L104.24-9.92Q104.24-9.60 103.80-9.50Q103.36-9.40 102.80-9.40L102.80-9.40Q102.48-9.40 102.18-9.42Q101.88-9.44 101.64-9.44L101.64-9.44Q99.92-9.40 98.44-9.22Q96.96-9.04 95.40-8.36L95.40-8.36Q95.12-8.24 94.90-7.98Q94.68-7.72 94.50-7.46Q94.32-7.20 94.14-6.98Q93.96-6.76 93.72-6.72L93.72-6.72Q93.24-6.60 93.14-6.30Q93.04-6 92.72-5.68L92.72-5.68Q92.72-6.04 92.70-6.10Q92.68-6.16 92.52-6.24L92.52-6.24Q92.40-6.24 92.40-6.08L92.40-6.08Q92.40-6 92.54-5.90Q92.68-5.80 92.76-5.72L92.76-5.72Q92.24-5.40 91.98-5.08Q91.72-4.76 91.72-4.20L91.72-4.20Q91.72-3.96 91.96-3.96L91.96-3.96Q92.96-4.12 94.26-4.46Q95.56-4.80 96.56-4.80L96.56-4.80Q96.68-4.80 96.78-4.78Q96.88-4.76 97-4.76L97-4.76Q97.60-4.76 98.18-4.88Q98.76-5 99.40-5L99.40-5Q99.56-5 99.72-4.98Q99.88-4.96 100.04-4.96L100.04-4.96Q100.24-4.96 100.48-5.02Q100.72-5.08 100.92-5.08L100.92-5.08Q101.28-5.08 101.76-5.06Q102.24-5.04 102.64-4.96L102.64-4.96Q102.64-4.96 103.56-4.84Q104.48-4.72 105.60-4.42Q106.72-4.12 107.64-3.58Q108.56-3.04 108.56-2.16L108.56-2.16Q108.56-1.76 108.06-1.62Q107.56-1.48 107.28-1.48L107.28-1.48Q106.80-1.48 106.18-1.70Q105.56-1.92 104.96-1.92L104.96-1.92Q103.96-1.92 103.20-1.70Q102.44-1.48 101.64-1.36L101.64-1.36Q101.36-1.36 101.06-1.42Q100.76-1.48 100.48-1.48L100.48-1.48Q100.40-1.48 100.02-1.36Q99.64-1.24 99.12-1.08Q98.60-0.92 98.04-0.76Q97.48-0.60 97-0.56L97-0.56Q96.80-0.52 96.28-0.26Q95.76 0 95.04 0.30Q94.32 0.60 93.42 0.84Q92.52 1.08 91.60 1.08L91.60 1.08Q90.88 1.08 90.12 0.96Q89.36 0.84 88.72 0.44L88.72 0.44Q88.28 0.20 87.88-0.26Q87.48-0.72 87.16-1.26Q86.84-1.80 86.66-2.34Q86.48-2.88 86.48-3.36L86.48-3.36Q86.48-3.52 86.48-3.68Q86.48-3.84 86.52-4L86.52-4ZM111.64-14.12L111.64-14.12Q111.96-14.48 112.22-14.88Q112.48-15.28 112.64-15.76L112.64-15.76Q112.76-16.16 113.06-16.46Q113.36-16.76 113.68-17.02Q114.00-17.28 114.26-17.54Q114.52-17.80 114.64-18.12L114.64-18.12Q115.08-18.56 115.52-19.08Q115.96-19.60 116.64-19.88L116.64-19.88Q117.04-20.04 117.32-20.36Q117.60-20.68 118.08-20.68L118.08-20.68Q118.84-20.68 119.80-20.40Q120.76-20.12 121.60-19.64Q122.44-19.16 123.00-18.48Q123.56-17.80 123.56-17L123.56-17Q123.56-16.92 123.54-16.80Q123.52-16.68 123.52-16.60L123.52-16.60Q123.52-16.40 123.54-16.22Q123.56-16.04 123.56-15.84L123.56-15.84Q123.56-15.08 123.00-14.68L123.00-14.68Q122.68-14.52 122.52-14.14Q122.36-13.76 122.12-13.48L122.12-13.48Q121.92-13.28 121.72-13.08Q121.52-12.88 121.36-12.56L121.36-12.56Q121.20-12.24 120.72-11.74Q120.24-11.24 119.56-10.78Q118.88-10.32 118.06-9.98Q117.24-9.64 116.40-9.64L116.40-9.64Q115.96-9.64 115.56-9.72Q115.16-9.80 114.72-9.80L114.72-9.80Q114.16-9.80 114.04-9.16Q113.92-8.52 113.92-8.04L113.92-8.04Q113.92-7.36 113.96-6.48Q114.00-5.60 114.16-4.80Q114.32-4 114.62-3.44Q114.92-2.88 115.48-2.88L115.48-2.88Q115.92-2.88 116.42-3.16Q116.92-3.44 117.24-3.72L117.24-3.72Q118.88-5.04 120.46-6.32Q122.04-7.60 123.60-9L123.60-9Q123.76-9.16 124.14-9.54Q124.52-9.92 124.98-10.32Q125.44-10.72 125.96-11.02Q126.48-11.32 126.96-11.32L126.96-11.32Q127.16-11.32 127.38-11.22Q127.60-11.12 127.60-10.88L127.60-10.88Q127.60-10.68 127.40-10.50Q127.20-10.32 126.94-10.16Q126.68-10 126.42-9.86Q126.16-9.72 126-9.60L126-9.60Q125.36-9.08 124.92-8.64L124.92-8.64Q124.48-8.24 124.16-7.90Q123.84-7.56 123.84-7.40L123.84-7.40Q123.84-7.16 123.68-6.80Q123.52-6.44 123.20-6.44L123.20-6.44Q122.76-6.24 122.44-5.84Q122.12-5.44 121.84-5.02Q121.56-4.60 121.30-4.26Q121.04-3.92 120.80-3.84L120.80-3.84Q120.56-3.76 120.00-3.20Q119.44-2.64 118.82-2Q118.20-1.36 117.64-0.86Q117.08-0.36 116.84-0.36L116.84-0.36Q116.60-0.36 116.44-0.48L116.44-0.48Q116.24-0.36 116.06-0.24Q115.88-0.12 115.68 0L115.68 0Q114.52-0.12 113.68-0.28Q112.84-0.44 112.20-1.36L112.20-1.36Q112.04-1.72 111.84-1.84L111.84-1.84Q111.60-1.96 111.38-2.26Q111.16-2.56 111.00-2.86Q110.84-3.16 110.76-3.42Q110.68-3.68 110.68-3.72L110.68-3.72Q110.68-3.84 110.72-3.98Q110.76-4.12 110.76-4.28L110.76-4.28Q110.76-4.56 110.54-4.80Q110.32-5.04 110.32-5.28L110.32-5.28Q110.32-5.36 110.38-5.48Q110.44-5.60 110.44-5.72L110.44-5.72Q110.44-5.92 110.36-6.10Q110.28-6.28 110.28-6.48L110.28-6.48Q110.28-6.64 110.38-6.80Q110.48-6.96 110.48-7.12L110.48-7.12Q110.48-7.32 110.34-7.56Q110.20-7.80 110.20-8.04L110.20-8.04Q110.20-8.32 110.20-8.78Q110.20-9.24 110.24-9.72Q110.28-10.20 110.38-10.64Q110.48-11.08 110.68-11.32L110.68-11.32Q111.08-11.84 111.16-12.66Q111.24-13.48 111.68-14.12L111.68-14.12Q111.52-13.88 111.52-13.68L111.52-13.68Q111.52-13.56 111.60-13.48L111.60-13.48Q111.64-13.52 111.68-13.52Q111.72-13.52 111.72-13.64L111.72-13.64Q111.72-13.80 111.64-14.12ZM115.44-12.12L115.44-12.12Q115.96-12.20 116.80-12.46Q117.64-12.72 118.42-13.18Q119.20-13.64 119.76-14.34Q120.32-15.04 120.32-16L120.32-16Q120.32-16.52 120.14-17.16Q119.96-17.80 119.36-17.80L119.36-17.80Q118.36-17.80 117.50-17.12Q116.64-16.44 116.00-15.54Q115.36-14.64 114.98-13.76Q114.60-12.88 114.60-12.48L114.60-12.48Q114.60-12.28 114.78-12.24Q114.96-12.20 115.44-12.12ZM126.36-8.88L126.04-9.12Q126.20-9.16 126.34-9.40Q126.48-9.64 126.60-9.94Q126.72-10.24 126.84-10.54Q126.96-10.84 127.08-10.96L127.08-10.96Q127.04-11.16 127.04-11.52L127.04-11.52Q127.04-12.04 127.26-12.56Q127.48-13.08 127.48-13.40L127.48-13.40Q127.56-14.52 128.16-15.66Q128.76-16.80 129.24-17.84L129.24-17.84Q129.32-18 129.52-18.42Q129.72-18.84 129.96-19.26Q130.20-19.68 130.44-20Q130.68-20.32 130.80-20.32L130.80-20.32Q130.88-20.32 130.94-20.30Q131-20.28 131.08-20.28L131.08-20.28Q131.40-20.28 131.72-20.36Q132.04-20.44 132.36-20.44L132.36-20.44Q132.84-20.44 133.10-20.20Q133.36-19.96 133.52-19.60Q133.68-19.24 133.78-18.84Q133.88-18.44 133.96-18.12L133.96-18.12Q133.96-17.92 133.92-17.76Q133.88-17.60 133.84-17.32L133.84-17.32Q134.36-18 135.02-18.68Q135.68-19.36 135.76-19.76L135.76-19.76Q135.80-20 136.14-20.38Q136.48-20.76 136.96-21.14Q137.44-21.52 137.98-21.78Q138.52-22.04 139.04-22.04L139.04-22.04Q139.84-22.04 140.38-21.68Q140.92-21.32 141.24-20.78Q141.56-20.24 141.68-19.60Q141.80-18.96 141.80-18.44L141.80-18.44Q141.80-17.28 141.50-16.70Q141.20-16.12 140.32-15.48L140.32-15.48Q140.04-15.28 139.92-14.98Q139.80-14.68 139.72-14.42Q139.64-14.16 139.54-13.96Q139.44-13.76 139.20-13.76L139.20-13.76Q138.56-13.76 138.28-14.52Q138-15.28 137.88-16.18Q137.76-17.08 137.70-17.84Q137.64-18.60 137.40-18.60L137.40-18.60Q137.36-18.60 137.36-18.58Q137.36-18.56 137.32-18.56L137.32-18.56Q136.72-18.20 136.06-17.48Q135.40-16.76 134.80-15.92Q134.20-15.08 133.70-14.20Q133.20-13.32 132.92-12.60L132.92-12.60Q132.72-12.12 132.54-11.62Q132.36-11.12 132.04-10.68L132.04-10.68Q131.80-10.32 131.68-9.92Q131.56-9.52 131.44-9.02Q131.32-8.52 131.12-7.80Q130.92-7.08 130.48-6.04L130.48-6.04Q130.04-5 129.92-3.94Q129.80-2.88 129.24-1.92L129.24-1.92Q129.24-1.96 129.12-1.42Q129-0.88 128.72-0.24Q128.44 0.40 128.02 0.94Q127.60 1.48 127.04 1.48L127.04 1.48Q126.28 1.48 125.98 0.64Q125.68-0.20 125.68-1.20L125.68-1.20Q125.68-1.48 125.72-1.72Q125.76-1.96 125.76-2.28L125.76-2.28Q125.76-2.72 125.68-3.14Q125.60-3.56 125.60-4.08L125.60-4.08Q125.60-4.64 125.74-5.50Q125.88-6.36 126.28-6.84L126.28-6.84Q126.28-6.88 126.30-6.90Q126.32-6.92 126.32-7L126.32-7Q126.32-7.20 126.22-7.36Q126.12-7.52 126.12-7.68L126.12-7.68Q126.12-7.96 126.20-8.30Q126.28-8.64 126.36-8.88L126.36-8.88ZM131.48-12.24L131.44-12.36L131.36-12.24L131.48-12.24ZM163.32-15.76L163.32-15.76Q163.32-15.84 163.40-15.84L163.40-15.84Q163.56-15.84 163.84-15.62Q164.12-15.40 164.12-15.12L164.12-15.12Q164.12-14.88 163.76-14.64Q163.40-14.40 162.44-14.32L162.44-14.32Q161.40-14.24 160.46-13.84Q159.52-13.44 158.64-13L158.64-13Q158.08-12.72 157.72-12.50Q157.36-12.28 157.14-12.06Q156.92-11.84 156.82-11.56Q156.72-11.28 156.68-10.84L156.68-10.84Q156.68-10.76 156.58-10.20Q156.48-9.64 156.34-9Q156.20-8.36 156.06-7.82Q155.92-7.28 155.88-7.24L155.88-7.24Q155.56-7.04 155.48-6.74Q155.40-6.44 155.38-6.10Q155.36-5.76 155.34-5.40Q155.32-5.04 155.08-4.76L155.08-4.76Q154.88-4.48 154.70-4.14Q154.52-3.80 154.16-3.30Q153.80-2.80 153.20-2.06Q152.60-1.32 151.52-0.24L151.52-0.24Q151.52-0.24 151.48-0.28L151.48-0.28Q151.36-0.28 151.08-0.14Q150.80 0 150.46 0.18Q150.12 0.36 149.78 0.56Q149.44 0.76 149.24 0.88L149.24 0.88Q148.60 0.68 147.92 0.52Q147.24 0.36 146.64-0.08L146.64-0.08Q145.84-0.72 145.20-1.64L145.20-1.64Q144.64-2.44 144.22-3.60Q143.80-4.76 143.80-6.32L143.80-6.32Q143.80-6.92 143.96-7.48Q144.12-8.04 144.12-8.60L144.12-8.60Q144.12-8.80 144.26-9.22Q144.40-9.64 144.54-10.16Q144.68-10.68 144.82-11.18Q144.96-11.68 144.96-12.04L144.96-12.04Q144.96-12.36 144.78-12.80Q144.60-13.24 144.40-13.74Q144.20-14.24 144.02-14.74Q143.84-15.24 143.84-15.68L143.84-15.68Q143.84-17.24 144.14-18.14Q144.44-19.04 144.98-19.50Q145.52-19.96 146.30-20.08Q147.08-20.20 148.08-20.20L148.08-20.20L150-20.20Q150.80-20.20 151.50-19.74Q152.20-19.28 152.92-19.04L152.92-19.04Q153.32-18.88 153.80-18.52Q154.28-18.16 154.70-17.68Q155.12-17.20 155.46-16.64Q155.80-16.08 155.96-15.52L155.96-15.52Q156.08-15.04 156.24-14.54Q156.40-14.04 156.92-14.04L156.92-14.04Q157.04-14.04 157.28-14.12L157.28-14.12Q158.80-14.64 160.26-15.16Q161.72-15.68 163.32-15.76ZM154.48-9.84L154.48-9.84Q154.40-10.24 154.40-10.56Q154.40-10.88 153.96-10.88L153.96-10.88Q152.88-10.48 151.78-10.12Q150.68-9.76 149.52-9.76L149.52-9.76Q148.92-9.60 148.68-8.82Q148.44-8.04 148.44-7.12L148.44-7.12Q148.44-6.96 148.46-6.82Q148.48-6.68 148.48-6.52L148.48-6.52Q148.48-6.12 148.34-5.68Q148.20-5.24 148.20-4.88L148.20-4.88Q148.20-4.56 148.30-4.16Q148.40-3.76 148.60-3.36Q148.80-2.96 149.08-2.70Q149.36-2.44 149.76-2.44L149.76-2.44Q150.48-2.44 151.14-3.20Q151.80-3.96 152.34-4.90Q152.88-5.84 153.30-6.68Q153.72-7.52 154-7.72L154-7.72Q154.32-7.92 154.36-8.60Q154.40-9.28 154.48-9.84ZM148.68-18.84L148.68-18.84Q148.56-18.80 148.40-18.78Q148.24-18.76 148.04-18.72L148.04-18.72Q147.56-18.64 147.20-18.34Q146.84-18.04 146.60-17.62Q146.36-17.20 146.22-16.70Q146.08-16.20 146.08-15.76L146.08-15.76Q146.08-15.48 146.14-15.02Q146.20-14.56 146.60-14.56L146.60-14.56Q146.68-14.56 146.68-14.60L146.68-14.60Q147.12-15.04 147.28-15.22Q147.44-15.40 147.64-15.40L147.64-15.40Q147.88-15.40 148.24-15.24L148.24-15.24Q148.32-15.20 148.76-15.08Q149.20-14.96 149.68-14.76Q150.16-14.56 150.54-14.28Q150.92-14 150.92-13.64L150.92-13.64Q150.92-13.36 150.64-12.92Q150.36-12.48 150.36-12.20L150.36-12.20Q150.36-11.96 150.54-11.90Q150.72-11.84 150.88-11.84L150.88-11.84Q151.28-11.88 151.84-11.98Q152.40-12.08 152.94-12.26Q153.48-12.44 153.86-12.70Q154.24-12.96 154.24-13.32L154.24-13.32Q154.24-13.52 154.22-13.68Q154.20-13.84 154.12-14.04L154.12-14.04Q153.76-14.84 153.24-15.70Q152.72-16.56 152.06-17.26Q151.40-17.96 150.56-18.40Q149.72-18.84 148.68-18.84ZM164.44 0.88L164.44 0.88Q164.12 0.68 163.84 0.50Q163.56 0.32 163.28 0.12L163.28 0.12Q162.44-1.44 162.28-3.24Q162.12-5.04 162.12-6.84L162.12-6.84Q162.12-7.04 162.14-7.20Q162.16-7.36 162.16-7.56L162.16-7.56Q162.40-9.48 162.48-11.38Q162.56-13.28 162.72-15.20L162.72-15.20Q162.76-15.72 162.88-16.28Q163.00-16.84 163.00-17.28L163.00-17.28Q163.00-17.56 162.88-17.84Q162.76-18.12 162.76-18.40L162.76-18.40Q162.76-18.68 162.84-19.02Q162.92-19.36 163.24-19.36L163.24-19.36Q163.60-19.36 164.08-19.30Q164.56-19.24 165.02-19.10Q165.48-18.96 165.80-18.74Q166.12-18.52 166.12-18.20L166.12-18.20Q166.12-14.84 165.72-11.78Q165.32-8.72 165.32-5.60L165.32-5.60Q165.32-5.44 165.34-5.22Q165.36-5 165.52-5L165.52-5Q165.64-5 165.90-5.38Q166.16-5.76 166.46-6.26Q166.76-6.76 167.04-7.24Q167.32-7.72 167.48-7.92L167.48-7.92Q167.72-8.24 167.88-8.68Q168.04-9.12 168.24-9.32L168.24-9.32Q168.84-9.92 168.84-10.84L168.84-10.84Q168.84-11.04 168.80-11.22Q168.76-11.40 168.76-11.60L168.76-11.60Q168.76-11.84 168.80-12.10Q168.84-12.36 168.84-12.60L168.84-12.60Q168.84-13 169.32-13.28Q169.80-13.56 170.50-13.74Q171.20-13.92 172.04-14.06Q172.88-14.20 173.60-14.40L173.60-14.40Q175.56-14.88 177.58-15.24Q179.60-15.60 181.64-15.60L181.64-15.60Q182.08-15.60 182.64-15.26Q183.20-14.92 183.20-14.52L183.20-14.52Q183.20-14.24 183.00-13.98Q182.80-13.72 182.48-13.68L182.48-13.68Q181.36-13.60 180.20-13.30Q179.04-13 177.86-12.64Q176.68-12.28 175.48-11.88Q174.28-11.48 173.08-11.24L173.08-11.24Q172.40-11.08 172.02-10.74Q171.64-10.40 171.38-9.94Q171.12-9.48 170.90-8.98Q170.68-8.48 170.28-8L170.28-8Q169.84-7.44 169.44-6.66Q169.04-5.88 168.68-5Q168.32-4.12 168.00-3.22Q167.68-2.32 167.32-1.48L167.32-1.48Q166.96-0.68 166.68-0.20Q166.40 0.28 166.06 0.52Q165.72 0.76 165.34 0.82Q164.96 0.88 164.44 0.88ZM194.28-4.92L194.28-4.88L194.28-4.92ZM194.76-5.92L194.76-5.92Q194.76-5.96 194.72-5.96L194.72-5.96Q194.76-5.96 194.76-5.92ZM193.20-3.24L193.24-3.28Q193.24-3.24 193.20-3.24L193.20-3.24ZM204.20-12.96L204.20-12.96Q204.28-12.96 204.28-12.72L204.28-12.72Q204.28-12.52 203.86-12.16Q203.44-11.80 203.20-11.80L203.20-11.80Q203.00-11.80 202.78-11.86Q202.56-11.92 202.36-11.92L202.36-11.92Q201.16-11.92 200.26-11.50Q199.36-11.08 197.92-10.08L197.92-10.08Q197.84-9.96 197.74-9.64Q197.64-9.32 197.50-8.96Q197.36-8.60 197.20-8.34Q197.04-8.08 196.88-8.08L196.88-8.08Q196.80-8.08 196.66-8.12Q196.52-8.16 196.44-8.16L196.44-8.16Q196.36-8.16 196.08-7.94Q195.80-7.72 195.48-7.42Q195.16-7.12 194.90-6.78Q194.64-6.44 194.64-6.16L194.64-6.16Q194.64-6 194.72-5.96L194.72-5.96Q194.48-5.28 194.16-4.64Q193.84-4 193.20-3.24L193.20-3.24L193.24-3.24Q193.12-3.08 192.94-2.90Q192.76-2.72 192.76-2.60L192.76-2.60Q192.76-2.36 192.96-2.36L192.96-2.36Q193.12-2.40 193.28-2.46Q193.44-2.52 193.60-2.52L193.60-2.52Q193.68-2.52 193.76-2.40L193.76-2.40Q193.76-2.16 193.28-1.78Q192.80-1.40 192.22-1Q191.64-0.60 191.16-0.32Q190.68-0.04 190.68-0.04L190.68-0.04Q190.44-0.04 190.28-0.20Q190.12-0.36 189.92-0.36L189.92-0.36Q189.60-0.28 189.16 0.04Q188.72 0.36 188.10 0.70Q187.48 1.04 186.68 1.32Q185.88 1.60 184.80 1.60L184.80 1.60Q183.84 1.60 183.18 0.88Q182.52 0.16 182.52-1.04L182.52-1.04Q182.52-1.44 182.80-1.84Q183.08-2.24 183.44-2.60Q183.80-2.96 184.16-3.30Q184.52-3.64 184.64-3.96L184.64-3.96Q184.80-4.36 185.18-4.84Q185.56-5.32 186.02-5.80Q186.48-6.28 187.02-6.72Q187.56-7.16 188.04-7.48L188.04-7.48Q188.64-7.88 189.32-8.26Q190.00-8.64 190.48-9.16L190.48-9.16Q190.68-9.36 190.98-9.48Q191.28-9.60 191.62-9.72Q191.96-9.84 192.24-10Q192.52-10.16 192.64-10.40L192.64-10.40Q193.24-10.72 193.68-11Q194.12-11.28 194.12-12.08L194.12-12.08Q194.12-12.48 193.92-12.96Q193.72-13.44 193.16-13.44L193.16-13.44Q192.84-13.44 192.56-13.40Q192.28-13.36 191.96-13.36L191.96-13.36Q191.68-13.36 191.52-13.40L191.52-13.40Q191.24-13.24 190.94-13.20Q190.64-13.16 190.34-13.12Q190.04-13.08 189.76-13.02Q189.48-12.96 189.24-12.80L189.24-12.80Q188.52-12.40 187.70-11.98Q186.88-11.56 186.06-11.22Q185.24-10.88 184.46-10.66Q183.68-10.44 183.04-10.44L183.04-10.44Q182.00-10.52 181.20-10.72L181.20-10.72Q180.52-10.92 179.94-11.30Q179.36-11.68 179.36-12.36L179.36-12.36Q179.36-12.44 179.38-12.56Q179.40-12.68 179.40-12.76L179.40-12.76Q179.40-13.08 179.30-13.38Q179.20-13.68 179.20-14.08L179.20-14.08Q179.20-14.40 179.34-14.62Q179.48-14.84 179.64-15.02Q179.80-15.20 179.94-15.40Q180.08-15.60 180.12-15.92L180.12-15.92Q180.12-16.84 180.56-17.48Q181.00-18.12 181.68-18.68L181.68-18.68Q182.00-18.88 182.20-19.36L182.20-19.36Q182.32-19.60 182.54-19.80Q182.76-20 182.98-20.18Q183.20-20.36 183.38-20.52Q183.56-20.68 183.56-20.88L183.56-20.88Q183.56-20.92 183.48-21.16L183.48-21.16Q183.56-21.28 183.62-21.42Q183.68-21.56 183.80-21.64L183.80-21.64Q184.44-22 185.04-22.52Q185.64-23.04 186.22-23.56Q186.80-24.08 187.36-24.54Q187.92-25 188.48-25.32L188.48-25.32Q188.72-25.44 189.06-25.70Q189.40-25.96 189.70-26.22Q190.00-26.48 190.28-26.68Q190.56-26.88 190.68-26.88L190.68-26.88Q191.20-26.92 191.52-27.20Q191.84-27.48 192.20-27.76L192.20-27.76Q192.40-27.96 192.84-28.16Q193.28-28.36 193.60-28.56L193.60-28.56Q194.00-28.40 194.54-28.10Q195.08-27.80 195.54-27.42Q196.00-27.04 196.32-26.64Q196.64-26.24 196.64-25.96L196.64-25.96Q196.64-25.64 196.40-25.58Q196.16-25.52 195.92-25.52L195.92-25.52Q195.72-25.52 195.54-25.58Q195.36-25.64 195.16-25.64L195.16-25.64Q193.96-25.64 192.68-25Q191.40-24.36 190.44-23.64L190.44-23.64Q190.00-23.32 189.60-23Q189.20-22.68 188.68-22.48L188.68-22.48Q188.68-22.48 188.40-22.26Q188.12-22.04 187.76-21.74Q187.40-21.44 187.02-21.12Q186.64-20.80 186.48-20.56L186.48-20.56Q186.16-20.16 185.80-19.88Q185.44-19.60 185.08-19.30Q184.72-19 184.40-18.68Q184.08-18.36 183.92-17.92L183.92-17.92L183.96-17.88Q183.92-17.88 183.88-17.90Q183.84-17.92 183.80-17.92L183.80-17.92Q183.68-17.72 183.54-17.56Q183.40-17.40 183.28-17.24L183.28-17.24Q183.32-17.12 183.36-17Q183.40-16.88 183.40-16.76L183.40-16.76Q183.40-16.60 183.26-16.48Q183.12-16.36 182.98-16.22Q182.84-16.08 182.70-15.92Q182.56-15.76 182.56-15.48L182.56-15.48Q182.56-15.16 182.28-14.92Q182.00-14.68 182.00-14.40L182.00-14.40Q182.00-14.12 182.18-13.68Q182.36-13.24 182.60-13.24L182.60-13.24Q183.72-13.48 184.92-13.86Q186.12-14.24 187.36-14.64Q188.60-15.04 189.84-15.32Q191.08-15.60 192.36-15.60L192.36-15.60Q192.72-15.60 193.06-15.58Q193.40-15.56 193.76-15.52L193.76-15.52Q194.12-15.52 194.50-15.28Q194.88-15.04 195.32-14.96L195.32-14.96Q195.48-14.92 195.58-14.82Q195.68-14.72 195.78-14.60Q195.88-14.48 195.96-14.38Q196.04-14.28 196.20-14.28L196.20-14.28Q196.60-14.24 196.82-14.04Q197.04-13.84 197.22-13.60Q197.40-13.36 197.62-13.16Q197.84-12.96 198.28-12.96L198.28-12.96Q199.20-12.96 200.24-13.18Q201.28-13.40 202.20-13.40L202.20-13.40Q202.60-13.40 203.14-13.26Q203.68-13.12 204.20-12.96ZM191.16-2.12L191.20-2.12Q191.20-2.16 191.16-2.16L191.16-2.16L191.12-2.12L191.08-2.12L191.12-2.12Q191.08-2.12 191.08-2.08L191.08-2.08L191.12-2.04Q191.16-2.04 191.16-2.12L191.16-2.12ZM192.32-5.44L192.32-5.44Q192.96-6.04 192.96-6.96L192.96-6.96Q192.96-7.16 192.92-7.34Q192.88-7.52 192.64-7.52L192.64-7.52Q192.20-7.52 191.64-7.04Q191.08-6.56 190.64-6.40L190.64-6.40Q190.40-6.16 190.16-5.96L190.16-5.96Q189.96-5.76 189.74-5.56Q189.52-5.36 189.32-5.28L189.32-5.28Q189.20-5.20 188.58-4.74Q187.96-4.28 187.26-3.60Q186.56-2.92 186.02-2.14Q185.48-1.36 185.48-0.72L185.48-0.72Q185.48-0.40 185.60-0.12L185.60-0.12Q185.88-0.20 186.14-0.34Q186.40-0.48 186.72-0.48L186.72-0.48Q186.80-0.48 186.90-0.44Q187.00-0.40 187.08-0.40L187.08-0.40L187.00-0.40Q187.00-0.44 187.34-0.60Q187.68-0.76 188.12-0.96Q188.56-1.16 188.94-1.38Q189.32-1.60 189.40-1.84L189.40-1.84Q189.48-2.12 189.74-2.42Q190.00-2.72 190.30-3Q190.60-3.28 190.82-3.50Q191.04-3.72 191.04-3.84L191.04-3.84Q191.04-4.28 191.50-4.70Q191.96-5.12 192.32-5.44ZM193.16-4.16L193.20-4.20Q193.28-4.20 193.28-4.28L193.28-4.28L193.24-4.32Q193.20-4.32 193.16-4.36L193.16-4.36L193.12-4.36Q193.08-4.36 193.04-4.32L193.04-4.32Q193.08-4.24 193.08-4.20Q193.08-4.16 193.16-4.16L193.16-4.16ZM196.48-8.96L196.52-8.92Q196.56-8.92 196.56-9L196.56-9L196.60-9L196.52-9L196.48-9L196.48-8.96ZM215.36-14.32L215.36-14.32Q215.24-14.16 215.04-13.94Q214.84-13.72 214.84-13.64L214.84-13.64Q214.84-13.52 215.12-13.48Q215.40-13.44 215.40-13.24L215.40-13.24Q215.40-12.20 215.08-11.68Q214.76-11.16 214.76-10.68L214.76-10.68Q214.76-10.36 214.88-10.08L214.88-10.08Q214.88-9.96 214.72-9.96L214.72-9.96Q214.60-9.96 214.56-10.14Q214.52-10.32 214.48-10.52Q214.44-10.72 214.40-10.90Q214.36-11.08 214.28-11.08L214.28-11.08Q214.16-11.08 214.14-10.88Q214.12-10.68 214.12-10.40L214.12-10.40Q214.12-9.96 214.24-9.78Q214.36-9.60 214.48-9.54Q214.60-9.48 214.72-9.40Q214.84-9.32 214.84-9.08L214.84-9.08Q214.84-8.48 214.48-7.86Q214.12-7.24 214.12-6.48L214.12-6.48Q214.12-5.56 213.88-5.12Q213.64-4.68 213.64-4.28L213.64-4.28Q213.68-4.16 213.68-3.92L213.68-3.92Q213.68-3.48 213.48-3.06Q213.28-2.64 213.28-2.24L213.28-2.24Q213.24-2 213.10-1.82Q212.96-1.64 212.82-1.50Q212.68-1.36 212.56-1.18Q212.44-1 212.44-0.72L212.44-0.72Q212.32 0.20 212.12 0.54Q211.92 0.88 211.12 1.04L211.12 1.04Q210.76 1.12 210.52 1.36Q210.28 1.60 210.04 1.60L210.04 1.60Q209.88 1.60 209.78 1.54Q209.68 1.48 209.52 1.48L209.52 1.48Q209.40 1.48 209.30 1.54Q209.20 1.60 209.08 1.60L209.08 1.60Q208.40 1.52 207.88 1.28L207.88 1.28Q207.44 1.08 207.06 0.66Q206.68 0.24 206.68-0.56L206.68-0.56Q206.68-1.16 206.48-1.64Q206.28-2.12 206.04-2.58Q205.80-3.04 205.60-3.52Q205.40-4 205.40-4.60L205.40-4.60Q205.40-5.08 205.14-5.92Q204.88-6.76 204.80-7.48L204.80-7.48Q204.72-7.92 204.68-8.22Q204.64-8.52 204.58-8.76Q204.52-9 204.40-9.30Q204.28-9.60 204.04-10.04L204.04-10.04Q203.60-10.84 203.56-11.68Q203.52-12.52 203.44-13.40L203.44-13.40Q203.44-13.64 203.40-14.04Q203.36-14.44 203.32-14.84Q203.28-15.24 203.22-15.54Q203.16-15.84 203.12-15.92L203.12-15.92Q202.84-16.24 202.76-16.56Q202.68-16.88 202.68-17.24L202.68-17.24Q202.68-17.92 202.80-18.40Q202.92-18.88 202.92-19.24L202.92-19.24Q202.92-19.52 202.66-19.70Q202.40-19.88 202.40-20.16L202.40-20.16Q202.40-20.28 202.40-20.58Q202.40-20.88 202.20-21.16L202.20-21.16Q202.08-21.88 201.94-22.80Q201.80-23.72 201.70-24.74Q201.60-25.76 201.54-26.80Q201.48-27.84 201.48-28.80L201.48-28.80Q201.48-29.16 202.10-29.32Q202.72-29.48 203.12-29.48L203.12-29.48Q203.96-29.40 204.36-28.88Q204.76-28.36 204.98-27.62Q205.20-26.88 205.32-26.06Q205.44-25.24 205.68-24.52L205.68-24.52Q205.84-24.04 205.86-23.56Q205.88-23.08 205.92-22.60Q205.96-22.12 206.02-21.64Q206.08-21.16 206.28-20.68L206.28-20.68Q206.36-20.52 206.36-20.36L206.36-20.36Q206.36-20.16 206.24-19.98Q206.12-19.80 206.12-19.60L206.12-19.60Q206.12-19.48 206.20-19.40L206.20-19.40Q206.56-18.72 206.62-17.86Q206.68-17 206.68-16.20L206.68-16.20Q206.68-15.76 206.82-15.42Q206.96-15.08 206.96-14.68L206.96-14.68Q206.96-14.48 206.92-14.24Q206.88-14 206.88-13.80L206.88-13.80Q206.88-13.40 207.08-13.08Q207.28-12.76 207.28-12.40L207.28-12.40Q207.28-12.08 207.22-11.82Q207.16-11.56 207.16-11.24L207.16-11.24Q207.16-10.84 207.22-10.62Q207.28-10.40 207.72-10.08L207.72-10.08Q207.72-9.52 207.76-9.02Q207.80-8.52 207.80-8L207.80-8Q207.80-7.80 207.94-7.62Q208.08-7.44 208.24-7.18Q208.40-6.92 208.54-6.56Q208.68-6.20 208.68-5.60L208.68-5.60Q208.68-5.60 208.68-5.44Q208.68-5.28 208.70-5.12Q208.72-4.96 208.80-4.82Q208.88-4.68 209.04-4.68L209.04-4.68Q209.40-4.68 209.78-5.38Q210.16-6.08 210.52-7.04Q210.88-8 211.20-8.98Q211.52-9.96 211.72-10.52L211.72-10.52Q211.84-10.84 212.06-11.04Q212.28-11.24 212.50-11.40Q212.72-11.56 212.90-11.72Q213.08-11.88 213.08-12.12L213.08-12.12L213.08-13.36Q213.76-13.36 214.02-13.76Q214.28-14.16 214.36-14.70Q214.44-15.24 214.48-15.80Q214.52-16.36 214.76-16.68L214.76-16.68Q215.00-17 215.02-17.44Q215.04-17.88 215.28-18.24L215.28-18.24Q216.00-19.28 216.80-20.76Q217.60-22.24 218.24-23.64L218.24-23.64Q218.28-23.72 218.48-23.94Q218.68-24.16 218.94-24.38Q219.20-24.60 219.50-24.78Q219.80-24.96 220.00-24.96L220.00-24.96Q220.20-24.96 220.52-24.86Q220.84-24.76 220.84-24.56L220.84-24.56Q220.84-24.48 220.74-24.18Q220.64-23.88 220.52-23.54Q220.40-23.20 220.28-22.94Q220.16-22.68 220.12-22.68L220.12-22.68Q219.80-22.48 219.66-22.22Q219.52-21.96 219.44-21.68Q219.36-21.40 219.24-21.20Q219.12-21 218.88-20.92L218.88-20.92Q218.64-20.84 218.62-20.42Q218.60-20 218.56-19.68L218.56-19.68Q218.52-19.36 218.32-19.26Q218.12-19.16 217.88-19.08Q217.64-19 217.46-18.80Q217.28-18.60 217.28-18.08L217.28-18.08Q217.28-17.60 217.16-17.38Q217.04-17.16 216.88-16.94Q216.72-16.72 216.50-16.36Q216.28-16 216.12-15.28L216.12-15.28Q216.00-14.96 215.72-14.86Q215.44-14.76 215.36-14.32ZM217.68-20.92L217.68-20.92Q217.64-20.88 217.66-21Q217.68-21.12 217.60-21.12L217.60-21.12Q217.52-21.04 217.52-21L217.52-21Q217.56-20.96 217.64-20.80L217.64-20.80Q217.64-20.84 217.66-20.86Q217.68-20.88 217.68-20.92ZM214.36-12.96L214.32-12.92Q214.28-12.92 214.28-12.88L214.28-12.88Q214.28-12.80 214.28-12.70Q214.28-12.60 214.36-12.60L214.36-12.60Q214.48-12.60 214.48-12.68L214.48-12.68Q214.48-12.72 214.44-12.80Q214.40-12.88 214.36-12.96L214.36-12.96ZM216.12-17.20L216.12-17.20Q216.16-17.16 216.08-17.32Q216.00-17.48 215.84-17.48L215.84-17.48Q215.76-17.40 215.76-17.28L215.76-17.28Q215.76-17.08 215.92-17.08L215.92-17.08Q216.00-17.08 216.12-17.20Z" fill="#000000" fontsize="40" transform="matrix(1,0,0,1,178.2,266.92)"></path></svg>