<svg class="injected-svg" id="svg-2b1e0524-1228-4c41-8720-1a57e859917a" height="100%" width="100%" viewBox="0 0 540 508" xmlns="http://www.w3.org/2000/svg"><g xmlns="http://www.w3.org/2000/svg" fill="#5984d6" id="icon-svg">
	<path transform="translate(44, 193) scale(0.6,0.6)" d="M 117.593 27.308 C 116.329 28.233, 110.121 48.520, 96.446 96.419 C 85.799 133.710, 77.017 164.959, 76.929 165.860 C 76.568 169.578, 77.125 171.036, 79.506 172.596 C 81.593 173.963, 82.498 174.036, 84.920 173.033 C 86.520 172.371, 88.295 170.630, 88.864 169.164 C 91.484 162.426, 127 34.811, 127 32.136 C 127 27.227, 121.538 24.424, 117.593 27.308 M 31.208 82.323 C 20.108 93.506, 16 98.291, 16 100.037 C 16 101.788, 20.093 106.522, 31.286 117.714 C 47.634 134.063, 49.718 135.282, 54 131 C 57.702 127.298, 56.605 125.291, 43.801 112.339 L 31.602 100 43.801 87.661 C 56.605 74.709, 57.702 72.702, 54 69 C 49.647 64.647, 47.512 65.895, 31.208 82.323 M 146 69 C 142.298 72.702, 143.395 74.709, 156.199 87.661 L 168.398 100 156.199 112.339 C 143.395 125.291, 142.298 127.298, 146 131 C 150.282 135.282, 152.366 134.063, 168.714 117.714 C 179.907 106.522, 184 101.788, 184 100.037 C 184 98.291, 179.892 93.506, 168.792 82.323 C 152.488 65.895, 150.353 64.647, 146 69" stroke="none" fill-rule="evenodd"></path>
</g><path xmlns="http://www.w3.org/2000/svg" id="SvgjsPath73265792" d="M5.89-31.37L2.99-31.37L2.99-34.50L10.07-34.50L19.83-14.40L29.49-34.50L36.57-34.50L36.57-31.37L33.67-31.37L33.67-3.13L36.57-3.13L36.57 0L26.91 0L26.91-3.13L29.90-3.13L29.90-26.82L21.21-8.92L18.31-8.92L9.66-26.96L9.66-3.13L12.65-3.13L12.65 0L2.99 0L2.99-3.13L5.89-3.13L5.89-31.37ZM41.86-3.36L41.86-18.49Q41.86-23.05 46.60-23.05L46.60-23.05L54.37-23.05Q56.63-23.05 57.64-22.17Q58.65-21.30 58.65-18.95L58.65-18.95L58.65-14.67L45.54-6.39L45.54-3.13L55.02-3.13L55.02-5.80L58.65-5.80L58.65-3.36Q58.65-1.98 57.80-0.99Q56.95 0 54.97 0L54.97 0L45.54 0Q43.56 0 42.71-0.99Q41.86-1.98 41.86-3.36L41.86-3.36ZM45.54-19.87L45.54-10.12L54.97-16.05L54.97-19.87L45.54-19.87ZM69.92-34.50L69.92-3.13L72.91-3.13L72.91 0L63.25 0L63.25-3.13L66.15-3.13L66.15-31.37L63.25-31.37L63.25-34.50L69.92-34.50ZM95.22-3.13L97.61-3.13L97.61 0L93.66 0L83.67-11.59L83.67-3.13L86.43-3.13L86.43 0L77.05 0L77.05-3.13L79.99-3.13L79.99-31.37L77.05-31.37L77.05-34.50L83.49-34.50L83.49-12.70L93.98-23L97.57-23L97.57-19.87L95.04-19.87L87.54-12.19L95.22-3.13ZM113.16 0L104.65 0Q102.30 0 101.34-1.08Q100.37-2.16 100.37-4.09L100.37-4.09L100.37-18.91Q100.37-20.75 101.22-21.87Q102.07-23 104.65-23L104.65-23L113.16-23Q115.69-23 116.56-21.87Q117.44-20.75 117.44-18.91L117.44-18.91L117.44-4.09Q117.44-2.16 116.47-1.08Q115.51 0 113.16 0L113.16 0ZM104.10-19.87L104.10-3.13L113.71-3.13L113.71-19.87L104.10-19.87ZM138.23 0L121.12 0L121.12-3.17L133.86-19.87L124.52-19.87L124.52-16.61L121.35-16.61L121.35-23L137.86-23L137.86-19.73L125.21-3.13L135.01-3.13L135.01-6.30L138.23-6.30L138.23 0ZM142.37-3.36L142.37-18.49Q142.37-23.05 147.11-23.05L147.11-23.05L154.88-23.05Q157.14-23.05 158.15-22.17Q159.16-21.30 159.16-18.95L159.16-18.95L159.16-14.67L146.05-6.39L146.05-3.13L155.53-3.13L155.53-5.80L159.16-5.80L159.16-3.36Q159.16-1.98 158.31-0.99Q157.46 0 155.48 0L155.48 0L146.05 0Q144.07 0 143.22-0.99Q142.37-1.98 142.37-3.36L142.37-3.36ZM146.05-19.87L146.05-10.12L155.48-16.05L155.48-19.87L146.05-19.87ZM177.24-23L177.24-23Q180.83-23 180.83-19.46L180.83-19.46L180.83-15.36L177.10-15.36L177.10-19.83L169.92-15.27L169.92-3.13L172.18-3.13L172.18 0L163.30 0L163.30-3.13L166.20-3.13L166.20-19.92L163.30-19.92L163.30-23.05L169.92-23.05L169.92-19.00L175.58-22.54Q176.32-23 177.24-23ZM197.29 0L188.78 0Q186.44 0 185.47-1.08Q184.51-2.16 184.51-4.09L184.51-4.09L184.51-18.91Q184.51-20.75 185.36-21.87Q186.21-23 188.78-23L188.78-23L197.29-23Q199.82-23 200.70-21.87Q201.57-20.75 201.57-18.91L201.57-18.91L201.57-4.09Q201.57-2.16 200.61-1.08Q199.64 0 197.29 0L197.29 0ZM188.23-19.87L188.23-3.13L197.85-3.13L197.85-19.87L188.23-19.87ZM204.33-23L212.80-23L212.80-19.87L210.54-19.87L215.14-3.13L219.83-19.87L217.58-19.87L217.58-23L226.09-23L226.09-19.87L223.33-19.87L217.76 0L212.66 0L207.05-19.87L204.33-19.87L204.33-23ZM233.45-24.01L244.86-16.88Q245.78-16.24 246.58-15.75Q247.39-15.27 247.99-14.72L247.99-14.72Q249.18-13.62 249.18-12.01L249.18-12.01L249.18-4.19Q249.18-2.12 247.71-1.01L247.71-1.01Q246.47 0 244.44 0L244.44 0L229.77 0L229.77-8.51L233.08-8.51L233.08-3.13L245.50-3.13L245.50-12.10L233.45-19.50Q231.84-20.42 230.80-21.41Q229.77-22.40 229.77-24.10L229.77-24.10L229.77-29.90Q229.77-32.61 231.06-33.63L231.06-33.63Q232.16-34.50 234.88-34.50L234.88-34.50L248.77-34.50L248.77-25.99L245.46-25.99L245.46-31.37L233.45-31.37L233.45-24.01ZM251.67-31.37L251.67-34.50L260.08-34.50L260.08-31.37L257.69-31.37L265.28-3.13L272.83-31.37L269.93-31.37L269.93-34.50L278.81-34.50L278.81-31.37L276.32-31.37L267.90 0L262.61 0L254.24-31.37L251.67-31.37Z" fill="#000000" fontsize="46" transform="matrix(1,0,0,1,178.01,271.25)"></path></svg>