<svg viewBox="0 0 430 115" xmlns="http://www.w3.org/2000/svg"><g xmlns="http://www.w3.org/2000/svg" fill="#5984d6" id="shape-svg"><g><g><path transform="translate(30, 0) scale(1.2,1.2)" d="M307.47,6.32,304,6.5c-2.24.09-5.55.29-9.75.43l-15.17.55c-5.85.22-12.46.46-19.67.59l-23.26.51c-8.26.19-17,.42-26,.43l-56.46.41L97.29,9c-9,0-17.72-.26-26-.44L48,8.06c-7.2-.12-13.8-.37-19.66-.59L13.21,6.93C9,6.79,5.71,6.58,3.45,6.5L0,6.32V6l153.73-.18L307.47,6Z"></path><path transform="translate(30, 0) scale(1.2,1.2)" d="M257,.27l-8.88.31c-5.65.12-13.71.43-23.4.56s-21,.43-33.09.48l-37.94.2L115.8,1.61c-12.11-.06-23.4-.34-33.09-.47S65,.7,59.3.57L50.42.27V.09L153.73,0,257,.09Z"></path><path transform="translate(30, 0) scale(1.2,1.2)" d="M0,88.57l3.46-.18C5.7,88.3,9,88.09,13.21,88l15.17-.55c5.85-.22,12.46-.47,19.67-.59l23.26-.52c8.26-.18,17-.41,26-.43l56.45-.4,56.45.41c9,0,17.72.26,26,.44l23.28.51c7.2.12,13.8.37,19.66.59l15.17.54c4.2.13,7.5.35,9.76.43l3.45.18v.36l-153.74.18L0,88.93Z"></path><path transform="translate(30, 0) scale(1.2,1.2)" d="M50.43,94.62l8.88-.31c5.64-.12,13.71-.43,23.4-.57s21-.42,33.09-.47l37.93-.2,37.94.21c12.11,0,23.4.34,33.09.47s17.76.44,23.41.57l8.88.3v.18l-103.32.09L50.43,94.8Z"></path></g></g></g><path xmlns="http://www.w3.org/2000/svg" d="M24.64 1.15Q20.35-11.78 13.44-31.30L13.44-31.30L12.99-31.30Q12.99-30.59 12.16-20.61L12.16-20.61Q11.07-6.21 11.07-5.38L11.07-5.38Q11.07-3.39 13.12-3.39L13.12-3.39L15.55-3.46L15.74-3.14L15.10 0.26L13.44 0.19Q8.83 0 8.32 0L8.32 0Q6.85 0 4.93 0.22Q3.01 0.45 2.43 0.51L2.43 0.51L2.82-3.01Q4.74-3.20 5.60-4.22Q6.46-5.25 6.78-7.81L6.78-7.81Q7.42-13.31 8.45-23.36Q9.47-33.41 9.47-34.56L9.47-34.56Q9.47-36.29 8.32-37.02Q7.17-37.76 4.29-37.95L4.29-37.95L4.03-38.34L4.54-41.22Q9.34-40.90 11.97-40.90L11.97-40.90Q12.42-40.90 16.06-41.09L16.06-41.09L17.47-41.15Q20.99-29.38 26.24-14.02L26.24-14.02L27.07-11.65L27.46-11.65Q28.22-13.89 28.67-15.17L28.67-15.17Q33.54-28.99 37.44-41.02L37.44-41.02Q38.21-41.02 38.78-40.96L38.78-40.96Q41.66-40.83 43.14-40.90L43.14-40.90Q44.54-40.90 47.04-41.09Q49.54-41.28 49.92-41.28L49.92-41.28L50.11-41.02L49.73-38.02Q46.98-37.70 45.89-36.93Q44.80-36.16 44.80-34.56L44.80-34.56Q44.80-32.83 45.38-24.22Q45.95-15.62 46.46-9.34L46.46-9.34Q46.72-6.85 47.04-5.60Q47.36-4.35 47.94-3.87Q48.51-3.39 49.54-3.39L49.54-3.39Q50.11-3.39 50.69-3.46Q51.26-3.52 51.33-3.52L51.33-3.52L51.52-3.20L50.94 0.19Q50.62 0.19 48.48 0.10Q46.34 0 44.74 0L44.74 0Q42.43 0 39.74 0.26Q37.06 0.51 36.93 0.51L36.93 0.51L37.31-3.01Q39.23-3.26 40.10-4Q40.96-4.74 40.96-6.21L40.96-6.21Q40.96-6.98 40.58-12.35Q40.19-17.73 39.94-21.12L39.94-21.12Q39.17-30.85 39.17-31.30L39.17-31.30L38.72-31.30Q31.68-11.78 27.46 0.64L27.46 0.64L24.64 1.15ZM56.96 0.51L57.28-2.62Q59.52-2.88 60.35-3.81Q61.18-4.74 61.18-6.91L61.18-6.91L61.25-26.30Q61.25-27.90 60.90-28.45Q60.54-28.99 59.46-28.99L59.46-28.99L57.79-28.93L57.54-29.25L57.98-32.06Q58.88-32.06 61.41-32Q63.94-31.94 66.88-31.94L66.88-31.94Q77.95-31.94 82.82-32.51L82.82-32.51L83.14-32.13Q83.01-31.36 82.56-28.74Q82.11-26.11 81.92-23.17L81.92-23.17L77.82-22.91Q77.82-23.10 77.89-23.71Q77.95-24.32 77.95-24.96L77.95-24.96Q77.95-26.50 77.50-27.14Q77.06-27.78 75.65-28Q74.24-28.22 70.91-28.22L70.91-28.22Q69.44-28.22 68.83-28.10Q68.22-27.97 68.03-27.65Q67.84-27.33 67.84-26.50L67.84-26.50L67.46-18.24L72.45-18.18Q73.60-18.18 75.81-18.40Q78.02-18.62 78.72-18.69L78.72-18.69L79.04-18.24L78.27-14.34Q77.57-14.34 75.55-14.40Q73.54-14.46 71.30-14.46L71.30-14.46Q69.63-14.46 67.26-14.14L67.26-14.14Q67.14-10.05 67.14-6.53L67.14-6.53Q67.14-5.12 67.36-4.51Q67.58-3.90 68.29-3.71Q68.99-3.52 70.72-3.52L70.72-3.52Q74.43-3.52 76.06-3.90Q77.70-4.29 78.40-5.44Q79.10-6.59 79.55-9.34L79.55-9.34L83.26-9.60L83.65-9.22Q83.46-8.45 82.98-5.76Q82.50-3.07 82.24-0.13L82.24-0.13L81.73 0.32Q80.06 0.26 74.66 0.13Q69.25 0 65.47 0L65.47 0Q62.66 0 60.16 0.22Q57.66 0.45 56.96 0.51L56.96 0.51ZM89.92 0.51L90.30-2.62Q92.29-2.88 93.06-3.81Q93.82-4.74 93.82-6.91L93.82-6.91L93.89-26.30Q93.89-27.90 93.50-28.45Q93.12-28.99 91.97-28.99L91.97-28.99L90.30-28.93L90.05-29.31L90.43-32.06Q91.58-32.06 92.54-32L92.54-32L97.22-31.94Q98.62-31.94 101.18-32.10Q103.74-32.26 104.58-32.32L104.58-32.32L104.19-29.12Q102.46-28.93 101.70-28.54Q100.93-28.16 100.74-27.49Q100.54-26.82 100.42-25.28L100.42-25.28Q99.78-17.22 99.78-6.72L99.78-6.72Q99.78-4.67 100.45-4.10Q101.12-3.52 103.42-3.52L103.42-3.52Q106.18-3.52 107.52-4.06Q108.86-4.61 109.54-6.14Q110.21-7.68 110.72-11.01L110.72-11.01L114.50-11.39L114.75-10.94Q114.62-10.05 114.18-6.82Q113.73-3.58 113.34-0.06L113.34-0.06L112.90 0.45Q111.42 0.38 106.69 0.19Q101.95 0 98.30 0L98.30 0Q95.55 0 93.09 0.22Q90.62 0.45 89.92 0.51L89.92 0.51ZM121.66-26.30Q121.66-27.90 121.28-28.45Q120.90-28.99 119.74-28.99L119.74-28.99L118.08-28.93L117.82-29.31L118.27-32.06L124.93-31.94Q126.34-31.94 128.67-32.10Q131.01-32.26 131.71-32.32L131.71-32.32L131.46-29.25Q129.47-28.93 128.80-28.32Q128.13-27.71 128.06-26.37L128.06-26.37L127.55-6.40Q127.49-4.35 127.94-3.65Q128.38-2.94 129.66-2.94L129.66-2.94Q130.43-2.94 131.01-3.01Q131.58-3.07 131.78-3.14L131.78-3.14L131.97-2.82L131.52 0.13Q130.69 0.13 128.54 0.06Q126.40 0 124.29 0L124.29 0Q122.05 0 120.06 0.06Q118.08 0.13 117.38 0.13L117.38 0.13L117.89-2.88Q120.19-3.20 120.90-3.90Q121.60-4.61 121.60-6.78L121.60-6.78L121.66-26.30ZM128.83-16.77L137.09-25.09Q138.56-26.43 138.56-27.52L138.56-27.52Q138.56-28.22 137.86-28.58Q137.15-28.93 135.62-29.06L135.62-29.06L135.42-29.38L135.87-32.26Q136.58-32.19 138.72-32.06Q140.86-31.94 142.21-31.94L142.21-31.94Q143.94-31.94 145.63-32Q147.33-32.06 147.97-32.13L147.97-32.13L148.29-31.68L147.84-28.99Q146.30-28.48 144.93-27.36Q143.55-26.24 141.25-23.68L141.25-23.68L134.85-17.22L142.40-7.04Q144.06-4.74 145.44-3.74Q146.82-2.75 148.61-2.69L148.61-2.69L148.93-2.24L148.54 0.13Q147.78 0.19 145.95 0.42Q144.13 0.64 142.91 0.70L142.91 0.70Q139.84 0.70 137.09-3.46L137.09-3.46L128.77-15.74L128.83-16.77ZM166.02 0.58Q161.47 0.58 158.08-1.34Q154.69-3.26 152.86-6.78Q151.04-10.30 151.04-15.04L151.04-15.04Q151.04-20.16 153.25-24.13Q155.46-28.10 159.36-30.30Q163.26-32.51 168.32-32.51L168.32-32.51Q175.30-32.51 179.39-28.35Q183.49-24.19 183.49-17.02L183.49-17.02Q183.49-11.90 181.25-7.90Q179.01-3.90 175.04-1.66Q171.07 0.58 166.02 0.58L166.02 0.58ZM167.42-3.26Q171.52-3.26 173.95-6.27Q176.38-9.28 176.38-14.53L176.38-14.53Q176.38-20.99 173.82-24.58Q171.26-28.16 166.78-28.16L166.78-28.16Q162.75-28.16 160.42-25.18Q158.08-22.21 158.08-16.96L158.08-16.96Q158.08-10.50 160.58-6.88Q163.07-3.26 167.42-3.26L167.42-3.26ZM188.80 0.26L187.71-1.86L206.46-28.61L199.10-28.29Q196.74-28.10 195.46-27.49Q194.18-26.88 193.57-25.57Q192.96-24.26 192.70-21.82L192.70-21.82L188.86-21.57Q188.99-22.53 189.34-25.86Q189.70-29.18 189.76-32.06L189.76-32.06L190.34-32.58L199.62-32L214.46-31.81L215.30-29.89Q209.22-22.27 203.94-14.85Q198.66-7.42 195.90-3.20L195.90-3.20L204.86-3.78Q207.49-3.90 209.02-5.76Q210.56-7.62 211.20-11.58L211.20-11.58L215.10-11.90Q214.91-10.88 214.43-7.33Q213.95-3.78 213.76-0.77L213.76-0.77L212.86 0.13L192.70-0.13L188.80 0.26ZM220.35 0.51L220.67-2.62Q222.91-2.88 223.74-3.81Q224.58-4.74 224.58-6.91L224.58-6.91L224.64-26.30Q224.64-27.90 224.29-28.45Q223.94-28.99 222.85-28.99L222.85-28.99L221.18-28.93L220.93-29.25L221.38-32.06Q222.27-32.06 224.80-32Q227.33-31.94 230.27-31.94L230.27-31.94Q241.34-31.94 246.21-32.51L246.21-32.51L246.53-32.13Q246.40-31.36 245.95-28.74Q245.50-26.11 245.31-23.17L245.31-23.17L241.22-22.91Q241.22-23.10 241.28-23.71Q241.34-24.32 241.34-24.96L241.34-24.96Q241.34-26.50 240.90-27.14Q240.45-27.78 239.04-28Q237.63-28.22 234.30-28.22L234.30-28.22Q232.83-28.22 232.22-28.10Q231.62-27.97 231.42-27.65Q231.23-27.33 231.23-26.50L231.23-26.50L230.85-18.24L235.84-18.18Q236.99-18.18 239.20-18.40Q241.41-18.62 242.11-18.69L242.11-18.69L242.43-18.24L241.66-14.34Q240.96-14.34 238.94-14.40Q236.93-14.46 234.69-14.46L234.69-14.46Q233.02-14.46 230.66-14.14L230.66-14.14Q230.53-10.05 230.53-6.53L230.53-6.53Q230.53-5.12 230.75-4.51Q230.98-3.90 231.68-3.71Q232.38-3.52 234.11-3.52L234.11-3.52Q237.82-3.52 239.46-3.90Q241.09-4.29 241.79-5.44Q242.50-6.59 242.94-9.34L242.94-9.34L246.66-9.60L247.04-9.22Q246.85-8.45 246.37-5.76Q245.89-3.07 245.63-0.13L245.63-0.13L245.12 0.32Q243.46 0.26 238.05 0.13Q232.64 0 228.86 0L228.86 0Q226.05 0 223.55 0.22Q221.06 0.45 220.35 0.51L220.35 0.51ZM277.70 0.77Q274.43 0.77 272-3.84L272-3.84L267.14-12.80L263.30-12.80L263.17-6.85Q263.17-5.06 263.42-4.29Q263.68-3.52 264.42-3.26Q265.15-3.01 266.94-2.94L266.94-2.94L267.14-2.69L266.56 0.19Q265.66 0.13 263.42 0.10Q261.18 0.06 259.20 0.06L259.20 0.06Q257.34 0.06 255.46 0.16Q253.57 0.26 252.99 0.32L252.99 0.32L253.44-2.82Q255.68-3.14 256.45-3.90Q257.22-4.67 257.22-6.85L257.22-6.85L257.28-26.50Q257.28-27.97 256.90-28.48Q256.51-28.99 255.55-28.99L255.55-28.99L253.70-28.93L253.44-29.25L253.89-32.06Q254.59-32.06 256.51-32Q258.43-31.94 260.29-31.94L260.29-31.94Q262.34-31.94 264.61-32.03Q266.88-32.13 267.78-32.19L267.78-32.19Q273.47-32.19 276.61-29.98Q279.74-27.78 279.74-23.81L279.74-23.81Q279.74-20.86 277.86-18.40Q275.97-15.94 272.45-14.27L272.45-14.27L277.38-6.85Q278.91-4.54 280.29-3.55Q281.66-2.56 283.46-2.56L283.46-2.56L283.78-2.11L283.39 0.26L277.70 0.77ZM268.29-16.38Q273.15-18.24 273.15-22.85L273.15-22.85Q273.15-25.73 271.10-27.14Q269.06-28.54 264.77-28.54L264.77-28.54Q264.26-28.54 264.06-28.32Q263.87-28.10 263.87-27.39L263.87-27.39Q263.42-20.03 263.42-16.90L263.42-16.90L268.29-16.38ZM301.25 0.58Q296.70 0.58 293.31-1.34Q289.92-3.26 288.10-6.78Q286.27-10.30 286.27-15.04L286.27-15.04Q286.27-20.16 288.48-24.13Q290.69-28.10 294.59-30.30Q298.50-32.51 303.55-32.51L303.55-32.51Q310.53-32.51 314.62-28.35Q318.72-24.19 318.72-17.02L318.72-17.02Q318.72-11.90 316.48-7.90Q314.24-3.90 310.27-1.66Q306.30 0.58 301.25 0.58L301.25 0.58ZM302.66-3.26Q306.75-3.26 309.18-6.27Q311.62-9.28 311.62-14.53L311.62-14.53Q311.62-20.99 309.06-24.58Q306.50-28.16 302.02-28.16L302.02-28.16Q297.98-28.16 295.65-25.18Q293.31-22.21 293.31-16.96L293.31-16.96Q293.31-10.50 295.81-6.88Q298.30-3.26 302.66-3.26L302.66-3.26ZM331.84 0.77Q331.07-1.98 328.48-10.78Q325.89-19.58 323.71-25.98L323.71-25.98Q323.20-27.46 322.24-28.19Q321.28-28.93 319.55-28.99L319.55-28.99L319.36-29.25L319.74-32.06Q320.45-32.06 322.37-32Q324.29-31.94 326.21-31.94L326.21-31.94Q328.38-31.94 331.17-32.13Q333.95-32.32 334.78-32.38L334.78-32.38L335.04-32L334.85-29.25Q332.93-29.06 332.06-28.90Q331.20-28.74 330.88-28.38Q330.56-28.03 330.56-27.33L330.56-27.33Q330.56-26.24 332.83-17.73Q335.10-9.22 335.94-6.14L335.94-6.14L336.64-6.14Q338.18-9.79 341.06-18.05Q343.94-26.30 343.94-27.39L343.94-27.39Q343.94-28.29 343.26-28.67Q342.59-29.06 340.93-29.06L340.93-29.06L338.69-29.06L338.50-29.38L338.82-32.26Q339.52-32.19 341.95-32.06Q344.38-31.94 346.50-31.94L346.50-31.94Q348.61-31.94 350.30-32Q352-32.06 352.58-32.06L352.58-32.06L352.13-28.99Q350.78-28.86 350.21-28.38Q349.63-27.90 349.06-26.43L349.06-26.43L338.94-0.26L331.84 0.77ZM366.21 0.77Q363.39 0.77 361.02 0.26Q358.66-0.26 357.12-0.86Q355.58-1.47 355.58-1.54L355.58-1.54L355.20-2.30Q355.26-2.69 355.46-4.16Q355.65-5.63 355.87-8.19Q356.10-10.75 356.10-13.31L356.10-13.31L360-13.63Q360-9.41 360.64-7.26Q361.28-5.12 362.91-4.29Q364.54-3.46 367.81-3.46L367.81-3.46Q371.39-3.46 373.57-5.12Q375.74-6.78 375.74-9.60L375.74-9.60Q375.74-12.03 373.66-13.66Q371.58-15.30 367.36-17.41L367.36-17.41Q367.17-17.54 366.14-18.05L366.14-18.05Q361.28-20.48 358.56-22.98Q355.84-25.47 355.84-29.38L355.84-29.38Q355.84-32.83 357.89-35.65Q359.94-38.46 363.52-40.06Q367.10-41.66 371.58-41.66L371.58-41.66Q374.21-41.66 376.51-41.28Q378.82-40.90 380.19-40.51Q381.57-40.13 381.89-40L381.89-40L382.14-39.42Q381.95-38.53 381.44-35.36Q380.93-32.19 380.67-28.54L380.67-28.54L377.22-28.22L376.70-28.61Q376.77-28.80 376.83-29.63Q376.90-30.46 376.90-31.49L376.90-31.49Q376.90-34.62 375.33-35.87Q373.76-37.12 369.86-37.12L369.86-37.12Q366.72-37.12 364.67-35.55Q362.62-33.98 362.62-31.62L362.62-31.62Q362.62-29.18 364.74-27.52Q366.85-25.86 371.20-23.68L371.20-23.68Q375.04-21.76 377.31-20.35Q379.58-18.94 381.22-16.83Q382.85-14.72 382.85-11.90L382.85-11.90Q382.85-8.19 380.77-5.31Q378.69-2.43 374.91-0.83Q371.14 0.77 366.21 0.77L366.21 0.77ZM401.73 1.02Q400.77-2.37 397.54-13.47Q394.30-24.58 391.36-33.73L391.36-33.73Q390.78-35.65 389.50-36.54Q388.22-37.44 385.98-37.50L385.98-37.50L385.79-37.82L386.24-41.09Q387.07-41.09 389.38-40.99Q391.68-40.90 393.92-40.90L393.92-40.90Q396.42-40.90 399.74-41.15Q403.07-41.41 404.10-41.54L404.10-41.54L404.35-41.02L404.03-37.95Q401.73-37.76 400.64-37.54Q399.55-37.31 399.14-36.83Q398.72-36.35 398.72-35.39L398.72-35.39Q398.72-34.05 401.70-22.66Q404.67-11.26 405.82-7.17L405.82-7.17L406.53-7.17Q408.83-13.06 412.45-23.55Q416.06-34.05 416.06-35.39L416.06-35.39Q416.06-36.61 415.17-37.15Q414.27-37.70 412.16-37.70L412.16-37.70L409.15-37.70L408.96-38.02L409.34-41.28Q410.24-41.22 413.15-41.06Q416.06-40.90 418.69-40.90L418.69-40.90Q421.18-40.90 423.20-40.96Q425.22-41.02 425.86-41.09L425.86-41.09L425.41-37.50Q423.62-37.38 422.88-36.77Q422.14-36.16 421.50-34.37L421.50-34.37L408.58-0.32L401.73 1.02Z" fill="#ffffff" transform="matrix(1,0,0,1,0,73)"></path></svg>