<?xml version="1.0" encoding="utf-8"?>
<svg viewBox="92.622 80.455 242.935 243.328" width="242.935" height="243.328" xmlns="http://www.w3.org/2000/svg">
  <linearGradient id="Oval_1_" gradientUnits="userSpaceOnUse" x1="-838.041" y1="660.581" x2="-838.041" y2="660.3427" gradientTransform="matrix(1000, 0, 0, -1000, 838254.816521, 660662.992641)">
    <stop offset="0" style="stop-color:#2AABEE"/>
    <stop offset="1" style="stop-color:#229ED9"/>
  </linearGradient>
  <circle fill-rule="evenodd" clip-rule="evenodd" fill="currentColor" cx="213.894" cy="202.119" r="120.1"/>
  <path fill-rule="evenodd" clip-rule="evenodd" d="M 148.094 200.819 C 183.094 185.619 206.394 175.519 218.094 170.619 C 251.394 156.719 258.394 154.319 262.894 154.219 C 263.894 154.219 266.094 154.419 267.594 155.619 C 268.794 156.619 269.094 157.919 269.294 158.919 C 269.494 159.919 269.694 162.019 269.494 163.619 C 267.694 182.619 259.894 228.719 255.894 249.919 C 254.194 258.919 250.894 261.919 247.694 262.219 C 240.694 262.819 235.394 257.619 228.694 253.219 C 218.094 246.319 212.194 242.019 201.894 235.219 C 189.994 227.419 197.694 223.119 204.494 216.119 C 206.294 214.319 236.994 186.319 237.594 183.819 C 237.694 183.519 237.694 182.319 236.994 181.719 C 236.294 181.119 235.294 181.319 234.494 181.519 C 233.394 181.719 216.594 192.919 183.894 215.019 C 179.094 218.319 174.794 219.919 170.894 219.819 C 166.594 219.719 158.394 217.419 152.194 215.419 C 144.694 213.019 138.694 211.719 139.194 207.519 C 139.494 205.319 142.494 203.119 148.094 200.819 Z"/>
</svg>